<?xml version="1.0" encoding="utf-8"?>
<!-- Generator: Adobe Illustrator 27.5.0, SVG Export Plug-In . SVG Version: 6.00 Build 0)  -->
<svg version="1.1" xmlns="http://www.w3.org/2000/svg" xmlns:xlink="http://www.w3.org/1999/xlink" x="0px" y="0px"
	 viewBox="0 0 500 500" style="enable-background:new 0 0 500 500;" xml:space="preserve">
<g id="BACKGROUND">
</g>
<g id="OBJECTS">
	<g>
		<g>
			<defs>
				<path id="SVGID_1_" d="M226.019,436.324c-41.138-2.471-81.37-20.056-111.028-48.671
					c-29.658-28.615-47.979-69.333-47.142-110.536c0.838-41.204,23.546-79.453,55.916-104.959
					c50.465-39.765,113.572-55.296,174.871-47.985c9.958,1.188,20.015,3.037,28.937,7.616c8.922,4.579,16.669,12.241,19.375,21.897
					c2.706,9.657-0.611,21.236-9.147,26.499c-4.542,2.801-9.991,3.642-14.955,5.6c-4.964,1.958-9.895,5.747-10.442,11.055
					c-0.742,7.194,7.194,12.671,14.426,12.775c7.231,0.105,13.985-3.275,20.933-5.283c22.63-6.538,48.233,2.411,64.032,19.883
					s22.073,42.242,19.843,65.692C422.943,381.344,336.34,442.952,226.019,436.324z"/>
			</defs>
			<use xlink:href="#SVGID_1_"  style="overflow:visible;fill:#FAE6E3;"/>
			<clipPath id="SVGID_00000170971244936715714290000004741289721840837270_">
				<use xlink:href="#SVGID_1_"  style="overflow:visible;"/>
			</clipPath>
			<g style="clip-path:url(#SVGID_00000170971244936715714290000004741289721840837270_);">
				<polygon style="fill:#FF5548;" points="218.329,259.004 158.614,288.579 206.776,445.554 286.321,449.206 319.169,274.441 
					247.831,259.004 				"/>
				<g>
					
						<path style="fill:none;stroke:#FFBE50;stroke-width:1.5;stroke-linecap:round;stroke-linejoin:round;stroke-miterlimit:10;" d="
						M181.73,291.412c-0.265,1.82-0.531,3.641-0.796,5.461"/>
					
						<path style="fill:none;stroke:#FFBE50;stroke-width:1.5;stroke-linecap:round;stroke-linejoin:round;stroke-miterlimit:10;" d="
						M197.28,299.208c1.691-0.39,3.382-0.78,5.073-1.171"/>
					
						<path style="fill:none;stroke:#FFBE50;stroke-width:1.5;stroke-linecap:round;stroke-linejoin:round;stroke-miterlimit:10;" d="
						M213.199,307.811c0.379,1.824,0.757,3.647,1.136,5.471"/>
					
						<path style="fill:none;stroke:#FFBE50;stroke-width:1.5;stroke-linecap:round;stroke-linejoin:round;stroke-miterlimit:10;" d="
						M196.889,318.331c-1.041,0.911-2.081,1.821-3.122,2.732"/>
					
						<path style="fill:none;stroke:#FFBE50;stroke-width:1.5;stroke-linecap:round;stroke-linejoin:round;stroke-miterlimit:10;" d="
						M201.005,336.723c0.406,1.426,0.812,2.853,1.218,4.279"/>
					
						<path style="fill:none;stroke:#FFBE50;stroke-width:1.5;stroke-linecap:round;stroke-linejoin:round;stroke-miterlimit:10;" d="
						M223.427,334.331c1.951-0.26,3.902-0.52,5.854-0.78"/>
					
						<path style="fill:none;stroke:#FFBE50;stroke-width:1.5;stroke-linecap:round;stroke-linejoin:round;stroke-miterlimit:10;" d="
						M217.514,354.238c0.113,1.692,0.225,3.385,0.338,5.077"/>
					
						<path style="fill:none;stroke:#FFBE50;stroke-width:1.5;stroke-linecap:round;stroke-linejoin:round;stroke-miterlimit:10;" d="
						M193.756,357.023c1.428,0.275,2.856,0.551,4.284,0.826"/>
					
						<path style="fill:none;stroke:#FFBE50;stroke-width:1.5;stroke-linecap:round;stroke-linejoin:round;stroke-miterlimit:10;" d="
						M238.256,352.283c1.431-1.171,2.862-2.341,4.293-3.512"/>
					
						<path style="fill:none;stroke:#FFBE50;stroke-width:1.5;stroke-linecap:round;stroke-linejoin:round;stroke-miterlimit:10;" d="
						M244.11,314.428c0.52,1.171,1.041,2.341,1.561,3.512"/>
					
						<path style="fill:none;stroke:#FFBE50;stroke-width:1.5;stroke-linecap:round;stroke-linejoin:round;stroke-miterlimit:10;" d="
						M257.76,323.331c2.209-0.278,4.418-0.557,6.628-0.835"/>
					
						<path style="fill:none;stroke:#FFBE50;stroke-width:1.5;stroke-linecap:round;stroke-linejoin:round;stroke-miterlimit:10;" d="
						M266.355,303.892c1.041-1.041,2.081-2.081,3.122-3.122"/>
					
						<path style="fill:none;stroke:#FFBE50;stroke-width:1.5;stroke-linecap:round;stroke-linejoin:round;stroke-miterlimit:10;" d="
						M282.766,300.724c1.697,0.769,3.393,1.537,5.089,2.306"/>
					
						<path style="fill:none;stroke:#FFBE50;stroke-width:1.5;stroke-linecap:round;stroke-linejoin:round;stroke-miterlimit:10;" d="
						M284.363,315.992c-0.113,2.342-0.226,4.685-0.339,7.027"/>
					
						<path style="fill:none;stroke:#FFBE50;stroke-width:1.5;stroke-linecap:round;stroke-linejoin:round;stroke-miterlimit:10;" d="
						M285.477,340.575c1.301,0.26,2.602,0.52,3.902,0.78"/>
					
						<path style="fill:none;stroke:#FFBE50;stroke-width:1.5;stroke-linecap:round;stroke-linejoin:round;stroke-miterlimit:10;" d="
						M264.013,342.917c-0.13,1.691-0.26,3.382-0.39,5.073"/>
					
						<path style="fill:none;stroke:#FFBE50;stroke-width:1.5;stroke-linecap:round;stroke-linejoin:round;stroke-miterlimit:10;" d="
						M265.65,361.945c1.295,1.048,2.59,2.096,3.884,3.145"/>
					
						<path style="fill:none;stroke:#FFBE50;stroke-width:1.5;stroke-linecap:round;stroke-linejoin:round;stroke-miterlimit:10;" d="
						M246.061,367.893c-0.65,1.951-1.301,3.902-1.951,5.854"/>
					
						<path style="fill:none;stroke:#FFBE50;stroke-width:1.5;stroke-linecap:round;stroke-linejoin:round;stroke-miterlimit:10;" d="
						M231.166,383.763c-2.08,1.043-4.16,2.086-6.241,3.129"/>
					
						<path style="fill:none;stroke:#FFBE50;stroke-width:1.5;stroke-linecap:round;stroke-linejoin:round;stroke-miterlimit:10;" d="
						M211.625,373.719c-0.389,1.301-0.779,2.602-1.168,3.903"/>
					
						<path style="fill:none;stroke:#FFBE50;stroke-width:1.5;stroke-linecap:round;stroke-linejoin:round;stroke-miterlimit:10;" d="
						M242.733,391.361c0.498,1.957,0.995,3.914,1.493,5.871"/>
					
						<path style="fill:none;stroke:#FFBE50;stroke-width:1.5;stroke-linecap:round;stroke-linejoin:round;stroke-miterlimit:10;" d="
						M218.744,403.797c1.951,0.13,3.903,0.26,5.854,0.39"/>
					
						<path style="fill:none;stroke:#FFBE50;stroke-width:1.5;stroke-linecap:round;stroke-linejoin:round;stroke-miterlimit:10;" d="
						M204.239,391.26c-0.776,1.044-1.551,2.089-2.327,3.133"/>
					
						<path style="fill:none;stroke:#FFBE50;stroke-width:1.5;stroke-linecap:round;stroke-linejoin:round;stroke-miterlimit:10;" d="
						M267.135,389.747c0.26,1.691,0.52,3.382,0.78,5.073"/>
					
						<path style="fill:none;stroke:#FFBE50;stroke-width:1.5;stroke-linecap:round;stroke-linejoin:round;stroke-miterlimit:10;" d="
						M280.013,392.479c1.431,0.13,2.862,0.26,4.293,0.39"/>
					
						<path style="fill:none;stroke:#FFBE50;stroke-width:1.5;stroke-linecap:round;stroke-linejoin:round;stroke-miterlimit:10;" d="
						M279.233,369.844c1.171-0.78,2.341-1.561,3.512-2.341"/>
					
						<path style="fill:none;stroke:#FFBE50;stroke-width:1.5;stroke-linecap:round;stroke-linejoin:round;stroke-miterlimit:10;" d="
						M252.305,422.138c-0.13,1.561-0.26,3.122-0.39,4.683"/>
					
						<path style="fill:none;stroke:#FFBE50;stroke-width:1.5;stroke-linecap:round;stroke-linejoin:round;stroke-miterlimit:10;" d="
						M226.116,425.566c1.821-0.912,3.641-1.823,5.462-2.735"/>
					
						<path style="fill:none;stroke:#FFBE50;stroke-width:1.5;stroke-linecap:round;stroke-linejoin:round;stroke-miterlimit:10;" d="
						M272.208,412.772c1.821,0,3.642,0,5.464,0"/>
					
						<path style="fill:none;stroke:#FFBE50;stroke-width:1.5;stroke-linecap:round;stroke-linejoin:round;stroke-miterlimit:10;" d="
						M267.135,435.017c0,1.561,0,3.122,0,4.683"/>
					
						<path style="fill:none;stroke:#FFBE50;stroke-width:1.5;stroke-linecap:round;stroke-linejoin:round;stroke-miterlimit:10;" d="
						M224.988,441.651c0.781,0.65,1.561,1.301,2.341,1.951"/>
					
						<path style="fill:none;stroke:#FFBE50;stroke-width:1.5;stroke-linecap:round;stroke-linejoin:round;stroke-miterlimit:10;" d="
						M210.548,416.675c1.171-0.26,2.342-0.52,3.512-0.78"/>
					
						<path style="fill:none;stroke:#FFBE50;stroke-width:1.5;stroke-linecap:round;stroke-linejoin:round;stroke-miterlimit:10;" d="
						M282.3,287.786c1.699-0.895,3.399-1.79,5.098-2.685"/>
				</g>
				<path style="fill:none;stroke:#110605;stroke-width:1.5;stroke-linecap:round;stroke-linejoin:round;stroke-miterlimit:10;" d="
					M187.738,276.824c10.864,16.629,31.086,26.667,50.9,25.267c19.814-1.401,38.422-14.184,46.838-32.177"/>
			</g>
			<g style="clip-path:url(#SVGID_00000170971244936715714290000004741289721840837270_);">
				<path style="fill:#FFBE50;" d="M357.401,382.551l-14.878-104.396c-11.511-2.119-22.879-5.017-34.001-8.665l-35.928,184.49
					c28.102,0.224,56.822,1.887,84.924,2.111C357.466,431.504,357.453,407.137,357.401,382.551z"/>
				<path style="fill:none;stroke:#110605;stroke-width:1.5;stroke-linecap:round;stroke-linejoin:round;stroke-miterlimit:10;" d="
					M321.632,306.987c-9.342,49.408-24.05,97.799-43.783,144.048"/>
			</g>
			<g style="clip-path:url(#SVGID_00000170971244936715714290000004741289721840837270_);">
				<path style="fill:#FFBE50;" d="M127.657,452.98l88.745,0.899l-46.856-173.195l-29.577,13.135
					c-10.234,4.545-18.922,11.973-25.002,21.377L68.366,387.27l20.286,45.903L127.657,452.98z"/>
				<path style="fill:none;stroke:#110605;stroke-width:1.5;stroke-linecap:round;stroke-linejoin:round;stroke-miterlimit:10;" d="
					M152.073,290.697c12.439,54.878,32.813,107.951,60.29,157.056"/>
			</g>
		</g>
		<g>
			<g>
				<path style="fill:#FFBE50;" d="M72.809,345.441c-18.588,12.373-30.87,43.45-8.371,63.965
					c22.499,20.514,55.784,14.314,70.46-5.69C164.383,363.529,110.281,320.499,72.809,345.441z"/>
				<path style="fill:none;stroke:#110605;stroke-width:1.5;stroke-linecap:round;stroke-linejoin:round;stroke-miterlimit:10;" d="
					M61.16,377.103c1.282,15.122,12.403,28.94,26.901,33.425c14.498,4.485,31.479-0.64,41.076-12.396"/>
				<path style="fill:none;stroke:#110605;stroke-width:1.5;stroke-linecap:round;stroke-linejoin:round;stroke-miterlimit:10;" d="
					M132.386,407.087c6.684-11.154,9.878-24.365,9.028-37.34c-0.85-12.975-5.741-25.657-13.824-35.843"/>
			</g>
			<g>
				<g>
					<path style="fill:#FE9EC2;" d="M134.71,364.319c1.374,12.566-4.871,25.664-15.498,32.508
						c-10.627,6.844-25.135,7.112-36.007,0.664c-10.872-6.448-15.71-18.602-16.473-31.22c-1.238-20.483-2.28-40.778-3.518-61.262
						c-7.356-10.798-14.712-21.596-22.068-32.395c-0.902-1.325-1.816-2.672-2.318-4.194c-0.502-1.522-0.546-3.27,0.252-4.661
						c-0.622-6.366-0.996-12.964-1.617-19.33c-0.301-3.085-0.521-6.489,1.319-8.984c1.531-2.077,4.138-3.014,6.611-3.749
						c12.987-3.854,26.729-5.151,40.208-3.792c0.045-2.967,1.846-5.859,4.669-6.774c7.209,9.541,14.568,19.247,21.777,28.788
						c8.816,11.668,13.992,27.013,9.846,41.037C121.892,290.956,131.984,339.385,134.71,364.319z"/>
					
						<path style="fill:none;stroke:#110605;stroke-width:1.5;stroke-linecap:round;stroke-linejoin:round;stroke-miterlimit:10;" d="
						M98.754,297.672c2.515-0.698,5.03-1.396,7.545-2.094"/>
				</g>
				<g>
					<g>
						<path style="fill:#A24941;" d="M61.726,207.277l-6.554,2.474c-2.233,0.843-3.36,3.338-2.517,5.571l3.211,8.505l14.642-5.528
							l-3.211-8.506C66.454,207.561,63.96,206.434,61.726,207.277z"/>
						
							<path style="fill:none;stroke:#110605;stroke-width:1.5;stroke-linecap:round;stroke-linejoin:round;stroke-miterlimit:10;" d="
							M52.973,215.831c2.916-1.379,5.832-2.758,8.748-4.137c0.208,0.891,1.326,1.284,2.2,1.012s1.394-1.353,1.06-2.205
							c0.709-0.221,1.325-0.597,2.034-0.819"/>
					</g>
					<g>
						<g>
							<defs>
								<path id="SVGID_00000109747012350775459620000006760744427236924295_" d="M106.281,289.058l-30.493,11.513
									c-3.666,1.384-7.759-0.465-9.144-4.131L43.81,235.964c-1.384-3.666,0.465-7.759,4.131-9.144l30.493-11.513
									c3.666-1.384,7.759,0.466,9.144,4.131l22.834,60.476C111.796,283.58,109.947,287.674,106.281,289.058z"/>
							</defs>
							<use xlink:href="#SVGID_00000109747012350775459620000006760744427236924295_"  style="overflow:visible;fill:#789682;"/>
							<clipPath id="SVGID_00000043428733711449365690000011862895676696798889_">
								<use xlink:href="#SVGID_00000109747012350775459620000006760744427236924295_"  style="overflow:visible;"/>
							</clipPath>
							<path style="clip-path:url(#SVGID_00000043428733711449365690000011862895676696798889_);fill:#FFBE50;" d="M91.622,215.309
								c-2.019-5.347-7.99-8.045-13.337-6.026c-5.347,2.019-8.045,7.99-6.026,13.338c2.019,5.347,7.99,8.045,13.338,6.026
								C90.942,226.628,93.641,220.656,91.622,215.309z"/>
							<path style="clip-path:url(#SVGID_00000043428733711449365690000011862895676696798889_);fill:#FFBE50;" d="M52.467,223.274
								c-2.019-5.347-7.99-8.045-13.338-6.026c-5.347,2.019-8.045,7.99-6.026,13.337c2.019,5.347,7.99,8.045,13.337,6.026
								C51.788,234.593,54.486,228.621,52.467,223.274z"/>
							<path style="clip-path:url(#SVGID_00000043428733711449365690000011862895676696798889_);fill:#FFBE50;" d="M78.337,240.217
								c-2.019-5.347-7.99-8.045-13.338-6.026c-5.347,2.019-8.045,7.99-6.026,13.337c2.019,5.347,7.99,8.045,13.338,6.026
								C77.658,251.535,80.356,245.564,78.337,240.217z"/>
							<path style="clip-path:url(#SVGID_00000043428733711449365690000011862895676696798889_);fill:#FFBE50;" d="M105.172,262.99
								c-2.019-5.347-7.99-8.045-13.337-6.026c-5.347,2.019-8.045,7.99-6.026,13.337c2.019,5.347,7.99,8.045,13.337,6.026
								C104.493,274.309,107.191,268.338,105.172,262.99z"/>
							
								<ellipse transform="matrix(0.4117 -0.9113 0.9113 0.4117 -217.0974 254.9182)" style="clip-path:url(#SVGID_00000043428733711449365690000011862895676696798889_);fill:#FFBE50;" cx="88.906" cy="295.618" rx="10.349" ry="10.349"/>
							<path style="clip-path:url(#SVGID_00000043428733711449365690000011862895676696798889_);fill:#FFBE50;" d="M72.939,277.494
								c-2.019-5.347-7.99-8.045-13.338-6.026c-5.347,2.019-8.045,7.99-6.026,13.337c2.019,5.347,7.99,8.045,13.338,6.026
								C72.26,288.813,74.958,282.841,72.939,277.494z"/>
						</g>
						
							<path style="fill:none;stroke:#FFFFFF;stroke-width:1.5;stroke-linecap:round;stroke-linejoin:round;stroke-miterlimit:10;" d="
							M106.931,279.62c0.917,2.322,0.087,5.213-1.924,6.694"/>
					</g>
					<g>
						
							<rect x="53.569" y="243.707" transform="matrix(0.9355 -0.3532 0.3532 0.9355 -86.0114 43.7879)" style="fill:#FFFFFF;" width="46.784" height="27.666"/>
						
							<path style="fill:none;stroke:#110605;stroke-width:1.5;stroke-linecap:round;stroke-linejoin:round;stroke-miterlimit:10;" d="
							M67.325,259.265c5.785-2.191,11.57-4.382,17.355-6.573"/>
						
							<path style="fill:none;stroke:#110605;stroke-width:1.5;stroke-linecap:round;stroke-linejoin:round;stroke-miterlimit:10;" d="
							M68.475,262.058c5.456-2.031,10.912-4.062,16.368-6.093"/>
						
							<path style="fill:none;stroke:#110605;stroke-width:1.5;stroke-linecap:round;stroke-linejoin:round;stroke-miterlimit:10;" d="
							M90.938,262.773c2.063-0.742,4.127-1.484,6.19-2.226"/>
					</g>
				</g>
				<g>
					<path style="fill:#FE9EC2;" d="M46.445,271.911c-2.804-1.707-5.244-3.95-7.939-5.824c-1.253-0.872-2.218-2.152-2.712-3.596
						c-0.493-1.445-0.438-3.105,0.02-4.562c-1.606-0.991-2.839-2.573-3.409-4.373c-0.57-1.8-0.555-3.671,0.188-5.407
						c-2.441-2.94-2.146-7.124-1.104-10.8c1.073-3.785,2.173-7.536,3.246-11.32c5.433-4.941,10.866-9.882,16.3-14.823
						c0.785,0.148,1.208,1.145,1.255,1.943c0.048,0.797-0.258,1.569-0.565,2.306c-2.076,4.984-4.481,9.831-7.194,14.499
						c-1.57,2.702-1.846,6.235-2.617,9.264c4.318-2.914,8.573-5.92,12.891-8.834c0.864,0.642,0.957,1.906,0.78,2.968
						c-0.177,1.062-0.736,2.015-1.293,2.936c-3.031,5.008-6.325,9.858-9.863,14.521c4.24-1.921,8.391-3.931,12.63-5.852
						c0.739,0.703,0.852,2.012,0.517,2.976c-0.335,0.963-1.02,1.758-1.691,2.527c-3.495,4.011-6.991,8.022-10.486,12.033
						c4.179-2.015,8.292-4.058,12.471-6.073c0.672,0.577,0.638,1.796,0.402,2.65c-0.236,0.854-0.785,1.582-1.332,2.278
						C53.876,265.237,50.15,268.622,46.445,271.911z"/>
					
						<path style="fill:none;stroke:#110605;stroke-width:1.5;stroke-linecap:round;stroke-linejoin:round;stroke-miterlimit:10;" d="
						M32.644,248.652c0.356-2.412,2.474-4.115,4.434-5.566c2.563-1.897,5.127-3.794,7.69-5.692"/>
					
						<path style="fill:none;stroke:#110605;stroke-width:1.5;stroke-linecap:round;stroke-linejoin:round;stroke-miterlimit:10;" d="
						M48.805,248.939c-3.639,2.269-7.279,4.537-10.919,6.806"/>
					
						<path style="fill:none;stroke:#110605;stroke-width:1.5;stroke-linecap:round;stroke-linejoin:round;stroke-miterlimit:10;" d="
						M47.411,246.553c-1.203,1.856-2.405,3.711-3.608,5.567"/>
					
						<path style="fill:none;stroke:#110605;stroke-width:1.5;stroke-linecap:round;stroke-linejoin:round;stroke-miterlimit:10;" d="
						M43.489,233.264c-0.532,1.969-1.064,3.939-1.597,5.908"/>
					
						<path style="fill:none;stroke:#110605;stroke-width:1.5;stroke-linecap:round;stroke-linejoin:round;stroke-miterlimit:10;" d="
						M42.269,263.869c3.382-1.645,6.764-3.289,10.146-4.933"/>
					
						<path style="fill:none;stroke:#110605;stroke-width:1.5;stroke-linecap:round;stroke-linejoin:round;stroke-miterlimit:10;" d="
						M45.706,261.742c1.856-1.966,3.713-3.931,5.569-5.897"/>
					
						<path style="fill:none;stroke:#110605;stroke-width:1.5;stroke-linecap:round;stroke-linejoin:round;stroke-miterlimit:10;" d="
						M48.008,270.923c2.136-2.123,4.272-4.245,6.409-6.368"/>
				</g>
			</g>
		</g>
		<g>
			<g>
				<path style="fill:#110605;" d="M196.664,247.577c0.064,3.092,0.099,6.134,0.138,9.183l74.633-0.43
					c-2.982-15.152-5.927-30.516-8.909-45.668c2.37-2.998,2.165-7.419,0.506-10.863c-1.659-3.443-3.841-6.686-6.936-8.929
					c-5.984-4.335-13.834-5.478-21.163-4.529c-7.743,1.003-15.187,4.22-21.223,9.172c-6.036,4.952-10.417,11.881-13.044,19.234
					c-4.934,13.811-9.221,27.852-12.841,42.064l5.65-0.032C194.538,253.712,195.601,250.644,196.664,247.577z"/>
				<path style="fill:none;stroke:#110605;stroke-width:1.5;stroke-linecap:round;stroke-linejoin:round;stroke-miterlimit:10;" d="
					M206.846,202.662c-10.371,16.473-16.521,35.205-22.045,53.87"/>
			</g>
			<g>
				<path style="fill:#FE9EC2;" d="M276.894,269.93c-7.693-2.281-15.335-4.344-23.028-6.625c0-3.903-0.284-6.487-0.284-10.389
					c5.585-1.193,10.611-4.795,13.537-9.7c2.925-4.904,3.712-10.917,2.436-16.483c-1.082-4.717-1.588-9.423-3.17-13.997
					c-1.274-3.683-4.205-6.664-7.708-8.371c-3.053,0.934-6.444,0.717-9.353-0.597c-2.91-1.315-4.804-3.612-6.122-6.52
					c-5.018,0.36-9.857,1.887-14.36,4.13c0.733,8.779-3.989,17.786-11.625,22.179c0.083,13.267-0.442,26.088-0.36,39.355
					c-7.018,3.767-14.195,7.75-21.213,11.517c9.961,13.551,26.406,21.674,43.187,20.559
					C255.611,293.872,268.814,284.68,276.894,269.93z"/>
				<path style="fill:none;stroke:#110605;stroke-width:1.5;stroke-linecap:round;stroke-linejoin:round;stroke-miterlimit:10;" d="
					M231.703,251.689c6.92,3.707,15.413,4.349,22.812,1.725"/>
				<path style="fill:none;stroke:#110605;stroke-width:1.5;stroke-linecap:round;stroke-linejoin:round;stroke-miterlimit:10;" d="
					M248.636,222.205c0.639,2.431,1.278,4.863,1.916,7.294c-0.65,0-1.369,0.244-2.02,0.244"/>
				<path style="fill:none;stroke:#110605;stroke-width:1.5;stroke-linecap:round;stroke-linejoin:round;stroke-miterlimit:10;" d="
					M257.627,222.323c0.789-1.901,3.135-2.994,5.098-2.375"/>
				<path style="fill:none;stroke:#110605;stroke-width:1.5;stroke-linecap:round;stroke-linejoin:round;stroke-miterlimit:10;" d="
					M232.097,224.238c1.023-1.116,2.549-1.753,4.062-1.697c1.513,0.056,2.987,0.804,3.925,1.993"/>
				<path style="fill:none;stroke:#110605;stroke-width:1.5;stroke-linecap:round;stroke-linejoin:round;stroke-miterlimit:10;" d="
					M230.397,211.953c0.759-1.855,2.428-3.312,4.368-3.812c1.941-0.501,4.106-0.034,5.668,1.222"/>
				<path style="fill:none;stroke:#110605;stroke-width:1.5;stroke-linecap:round;stroke-linejoin:round;stroke-miterlimit:10;" d="
					M256.207,208.925c1.518-0.26,3.035-0.52,4.553-0.78"/>
				<path style="fill:none;stroke:#110605;stroke-width:1.5;stroke-linecap:round;stroke-linejoin:round;stroke-miterlimit:10;" d="
					M254.02,262.787c-0.088,1.084-0.176,2.168-0.264,3.252"/>
				<path style="fill:none;stroke:#110605;stroke-width:1.5;stroke-linecap:round;stroke-linejoin:round;stroke-miterlimit:10;" d="
					M242.682,231.501c-0.525,1.056-0.179,2.467,0.776,3.16c0.954,0.692,2.404,0.583,3.244-0.244"/>
			</g>
			<g>
				<path style="fill:#FFFFFF;" d="M264.878,199.119c1.011-3.068,0.961-6.496-0.424-9.405c-1.684-3.538-5.398-6.117-9.317-6.115
					c-3.463,0.002-6.865,2.182-8.236,5.319c-2.796-0.399-5.773-0.418-8.871,0.055c-4.403,0.672-8.528,2.102-12.235,4.143
					c-2.422-2.833-6.251-4.486-9.973-4.075c-4.737,0.523-8.924,4.339-9.885,9.007c-0.888,4.316,1.05,9.047,4.623,11.595
					c-2.082,4.731-3.122,10.008-2.834,15.575l9.853-5.005c6.135-22.34,39.43-26.503,48.805-7.475
					C269.17,208.91,268.28,203.711,264.878,199.119z"/>
				<path style="fill:#FE9EC2;" d="M213.982,196.705c-1.816,1.715-2.047,4.846-0.503,6.809l7.329-6.924
					C218.936,194.937,215.798,194.99,213.982,196.705z"/>
				<path style="fill:#FE9EC2;" d="M258.138,189.874c-1.734-0.969-4.101-0.624-5.486,0.801l7.678,4.292
					C260.819,193.041,259.873,190.844,258.138,189.874z"/>
				<path style="fill:none;stroke:#110605;stroke-width:1.5;stroke-linecap:round;stroke-linejoin:round;stroke-miterlimit:10;" d="
					M246.46,188.719c7.263,1.2,14.074,4.97,18.947,10.487"/>
			</g>
			<g>
				<path style="fill:#FE9EC2;" d="M226.234,232.423c-2.798-4.061-5.858-8.15-8.655-12.211c-4.605-0.823-9.606,1.414-12.063,5.396
					c-2.456,3.982-2.211,9.455,0.591,13.201c2.802,3.746,7.983,5.528,12.496,4.297C222.843,241.949,225.525,236.76,226.234,232.423z
					"/>
				<path style="fill:none;stroke:#110605;stroke-width:1.5;stroke-linecap:round;stroke-linejoin:round;stroke-miterlimit:10;" d="
					M210.29,228.559c2.515,0.35,5.029,0.699,7.544,1.049"/>
				<path style="fill:none;stroke:#110605;stroke-width:1.5;stroke-linecap:round;stroke-linejoin:round;stroke-miterlimit:10;" d="
					M216.532,243.662c0.607-0.087,1.214-0.173,1.821-0.26"/>
			</g>
		</g>
		<g>
			<g>
				<path style="fill:#FFBE50;" d="M357.401,382.551c9.105,3.482,18.635,6.097,28.372,6.563c9.737,0.466,19.726-1.31,28.193-6.141
					c13.238-7.553,21.762-22.71,21.338-37.946c-0.424-15.236-10.017-29.24-23.035-37.166c-21.93-13.351-44.497-25.058-69.747-29.707
					l-13.296,79.202L357.401,382.551z"/>
				<path style="fill:none;stroke:#110605;stroke-width:1.5;stroke-linecap:round;stroke-linejoin:round;stroke-miterlimit:10;" d="
					M357.284,382.723c0-8.195,0-16.391,0-24.586"/>
				<path style="fill:none;stroke:#110605;stroke-width:1.5;stroke-linecap:round;stroke-linejoin:round;stroke-miterlimit:10;" d="
					M382.759,311.893c7.046-3.909,15.537-5.139,23.403-3.392c7.866,1.747,15.037,6.456,19.767,12.98"/>
				<path style="fill:none;stroke:#110605;stroke-width:1.5;stroke-linecap:round;stroke-linejoin:round;stroke-miterlimit:10;" d="
					M383.034,308.958c2.812-2.95,6.858-4.685,10.934-4.687"/>
				<path style="fill:none;stroke:#110605;stroke-width:1.5;stroke-linecap:round;stroke-linejoin:round;stroke-miterlimit:10;" d="
					M366.719,378.785c9.629,5.417,21.603,6.478,32.034,2.836c10.431-3.641,19.143-11.924,23.309-22.157"/>
			</g>
			<g>
				
					<ellipse transform="matrix(0.3827 -0.9239 0.9239 0.3827 -50.6062 394.2859)" style="fill:#FFFFFF;" cx="269.742" cy="235.012" rx="14.976" ry="14.976"/>
				<g>
					<path style="fill:#FE9EC2;" d="M274.234,228.325c-0.765,0.775-1.044,1.982-0.724,3.023c0.32,1.041,0.998,1.928,1.664,2.79
						c0.857,1.111,1.715,2.222,2.572,3.333c-2.778-2.331-5.483-4.627-8.261-6.958c-1.091,0.981-1.479,2.563-1.121,3.986
						c0.358,1.423,1.214,2.662,2.06,3.861c6.243,8.852,12.797,17.485,19.646,25.876c-2.14,0.504-4.012,2.076-4.762,4.142
						c-0.75,2.066-0.389,4.5,0.929,6.259c-1.614,0.322-2.897,2.151-3.279,3.752c-0.382,1.601-0.011,3.308,0.704,4.79
						c0.715,1.482,1.757,2.779,2.788,4.062c6.733,8.367,13.204,16.951,20.198,25.101c6.145,7.16,10.848,6.964,10.848,6.964
						s26.307,30.83,40.071,45.465c13.764,14.635,37.012,16.856,49.194,5.208c12.182-11.648,13.233-34.132-5.965-49.406
						c-19.198-15.275-44.173-35.012-44.173-35.012l-19.227-22.564c-3.419-4.013-7.617-7.279-12.348-9.604
						C312.608,247.278,287.105,234.734,274.234,228.325z"/>
					
						<path style="fill:none;stroke:#110605;stroke-width:1.5;stroke-linecap:round;stroke-linejoin:round;stroke-miterlimit:10;" d="
						M276.051,236.258c8.805,7.042,17.481,14.246,26.021,21.607"/>
					
						<path style="fill:none;stroke:#110605;stroke-width:1.5;stroke-linecap:round;stroke-linejoin:round;stroke-miterlimit:10;" d="
						M289.5,264.489c0.781,0.563,1.562,1.126,2.344,1.688"/>
				</g>
			</g>
		</g>
	</g>
	<g>
		<g>
			<g>
				<path style="fill:#A6C3A5;" d="M118.408,102.056l-6.599,2.297l-4.259-12.237l19.16-6.669l-1.48-4.252l-28.322,6.805
					c-1.396,0.336-2.327,1.655-2.174,3.083l0.234,2.185c0.17,1.591,1.777,2.608,3.288,2.082l3.97-1.382l4.259,12.238l-6.599,2.297
					c-1.963,0.683-3.001,2.829-2.317,4.792l2.227,6.399l25.632-8.921l-2.227-6.399C122.517,102.41,120.372,101.372,118.408,102.056z
					"/>
				<path style="fill:none;stroke:#110605;stroke-width:1.5;stroke-linecap:round;stroke-linejoin:round;stroke-miterlimit:10;" d="
					M99.948,111.091c1.162,2.866,2.324,5.731,3.485,8.596"/>
				<path style="fill:none;stroke:#110605;stroke-width:1.5;stroke-linecap:round;stroke-linejoin:round;stroke-miterlimit:10;" d="
					M104.043,109.534c0.898,2.866,1.795,5.732,2.693,8.598"/>
				<path style="fill:none;stroke:#110605;stroke-width:1.5;stroke-linecap:round;stroke-linejoin:round;stroke-miterlimit:10;" d="
					M108.416,107.816c0.984,2.924,1.969,5.848,2.953,8.772"/>
				<path style="fill:none;stroke:#110605;stroke-width:1.5;stroke-linecap:round;stroke-linejoin:round;stroke-miterlimit:10;" d="
					M112.835,106.403c1.166,2.669,2.331,5.338,3.497,8.007"/>
				<path style="fill:none;stroke:#110605;stroke-width:1.5;stroke-linecap:round;stroke-linejoin:round;stroke-miterlimit:10;" d="
					M119.152,104.69c0.792,2.663,1.583,5.327,2.375,7.99"/>
				<path style="fill:none;stroke:#FFFFFF;stroke-width:1.5;stroke-linecap:round;stroke-linejoin:round;stroke-miterlimit:10;" d="
					M97.368,89.814c5.224-1.421,10.448-2.841,15.672-4.262"/>
				<path style="fill:none;stroke:#110605;stroke-width:1.5;stroke-linecap:round;stroke-linejoin:round;stroke-miterlimit:10;" d="
					M102.454,94.342c1.623-0.531,3.245-1.061,4.868-1.592"/>
			</g>
			<g>
				<path style="fill:#FF5548;" d="M148.888,117.012l2.02,6.779l0.005,0.014l16.677,56.057c3.361,11.283-2.75,23.224-13.887,27.1
					l-16.351,5.691c-2.455,0.855-4.956,1.255-7.409,1.234c-8.722-0.073-16.898-5.325-20.304-13.856l-3.526-8.829l-9.733-24.288
					l-4.982-12.452l-2.301-5.774l-3.821-9.537c-2.756-6.895,0.783-14.685,7.789-17.124l39.086-13.604
					C139.156,105.986,146.782,109.891,148.888,117.012z"/>
				<path style="fill:#F4A141;" d="M121.826,136.455c-2.087,2.427-5.357,3.5-8.539,3.895c-3.173,0.375-6.397,0.186-9.569,0.61
					c-5.581,0.76-10.812,3.601-14.622,7.729l-3.821-9.537c-2.756-6.895,0.783-14.685,7.789-17.124l17.868-6.219
					c-0.28,0.778-0.414,1.602-0.389,2.419c0.051,2.427,1.432,4.765,3.499,6.005c2.53,1.5,5.939,1.431,8.022,3.507
					C124.324,129.999,123.912,134.029,121.826,136.455z"/>
				<path style="fill:#F4A141;" d="M150.912,123.805l16.677,56.057c3.361,11.283-2.75,23.224-13.887,27.1l-10.935,3.806
					c-0.189-0.776-0.287-1.568-0.321-2.366c-0.174-4.781,2.205-9.577,6.111-12.313c1.606-1.11,3.419-1.903,4.887-3.175
					c1.483-1.277,2.579-3.246,2.085-5.13c-0.739-2.82-4.517-3.626-7.296-2.724c-2.759,0.912-5.035,2.935-7.764,3.933
					c-6.34,2.304-13.873-1.892-16.388-8.142c-2.506-6.269-0.607-13.7,3.619-18.96c4.226-5.26,10.431-8.602,16.841-10.704
					c2.89-0.957,6.502-2.49,6.457-5.551c-0.032-2.418-2.437-3.978-4.029-5.804c-2.657-3.027-3.236-7.716-1.392-11.305
					C146.685,126.361,148.646,124.691,150.912,123.805z"/>
				<path style="fill:#F4A141;" d="M130.472,208.894c0.022,1.692-0.173,3.364-0.529,4.993c-8.722-0.073-16.898-5.325-20.304-13.856
					l-3.526-8.829c4.353-1.823,9.582-1.781,13.862,0.325C126.376,194.66,130.393,201.78,130.472,208.894z"/>
				<path style="fill:#F4A141;" d="M101.1,158.47c0.267,1.931-0.432,3.924-1.562,5.515c-0.841,1.167-1.916,2.173-3.158,2.93
					l-4.982-12.452c1.447-1.054,3.366-1.495,5.118-1.069C98.869,153.968,100.769,156.076,101.1,158.47z"/>
				<path style="fill:#F4A141;" d="M130.341,123.475c1.281,1.462,3.392,2.142,5.286,1.702c5.384-1.252,5.321-9.034,0.295-10.772
					C130.889,112.664,127.026,119.691,130.341,123.475z"/>
				<path style="fill:none;stroke:#FFFFFF;stroke-width:1.5;stroke-linecap:round;stroke-linejoin:round;stroke-miterlimit:10;" d="
					M91.492,126.089c-3.345,2.347-5.087,6.771-4.24,10.768"/>
				<path style="fill:none;stroke:#FFFFFF;stroke-width:1.5;stroke-linecap:round;stroke-linejoin:round;stroke-miterlimit:10;" d="
					M164.751,181.784c2.025,6.681-0.309,14.469-5.676,18.934"/>
			</g>
			<g>
				
					<ellipse transform="matrix(0.9444 -0.3287 0.3287 0.9444 -45.9174 51.2759)" style="fill:#FFFFFF;" cx="128.696" cy="161.444" rx="19.703" ry="16.376"/>
				<path style="fill:none;stroke:#110605;stroke-width:1.5;stroke-linecap:round;stroke-linejoin:round;stroke-miterlimit:10;" d="
					M119.58,160.556c5.012-1.746,10.024-3.491,15.036-5.237"/>
				<path style="fill:none;stroke:#110605;stroke-width:1.5;stroke-linecap:round;stroke-linejoin:round;stroke-miterlimit:10;" d="
					M121.83,166.903c5.515-1.926,11.03-3.851,16.545-5.776"/>
			</g>
		</g>
		<g>
			<g>
				<path style="fill:#FF5548;" d="M255.249,56.716h-13.7c-2.075,0-3.794,1.608-3.934,3.678l-1.127,16.739h23.82l-1.127-16.739
					C259.043,58.324,257.323,56.716,255.249,56.716z"/>
				<path style="fill:none;stroke:#FFFFFF;stroke-width:1.5;stroke-linecap:round;stroke-linejoin:round;stroke-miterlimit:10;" d="
					M240.849,59.597c-0.366,4.224-0.732,8.448-1.098,12.673"/>
			</g>
			<g>
				<g>
					<defs>
						<path id="SVGID_00000165956470582653067600000017462121249543305635_" d="M260.361,165.149h-23.925
							c-7.746,0-14.122-6.091-14.477-13.829l-3.064-66.882c-0.162-3.54,2.409-6.617,5.921-7.087l2.472-0.331
							c14.011-1.874,28.21-1.874,42.221,0l2.472,0.331c3.513,0.47,6.083,3.547,5.921,7.087l-3.064,66.882
							C274.483,159.058,268.107,165.149,260.361,165.149z"/>
					</defs>
					<use xlink:href="#SVGID_00000165956470582653067600000017462121249543305635_"  style="overflow:visible;fill:#A24941;"/>
					<clipPath id="SVGID_00000173850196553288318730000000787114205560108197_">
						<use xlink:href="#SVGID_00000165956470582653067600000017462121249543305635_"  style="overflow:visible;"/>
					</clipPath>
					<polygon style="clip-path:url(#SVGID_00000173850196553288318730000000787114205560108197_);fill:#C86E64;" points="
						220.899,224.24 194.496,205.439 294.958,57.968 288.28,56.777 187.182,192.311 201.501,128.667 253.485,55.75 261.056,61.147 
						210.161,132.538 205.837,151.751 284.261,46.616 310.726,51.335 207.307,203.149 218.341,211.005 316.881,57.321 
						324.707,62.338 					"/>
				</g>
				<path style="fill:none;stroke:#FFFFFF;stroke-width:1.5;stroke-linecap:round;stroke-linejoin:round;stroke-miterlimit:10;" d="
					M222.534,84.186c0.21-2.438,2.787-4.391,5.191-3.936"/>
				<path style="fill:none;stroke:#FFFFFF;stroke-width:1.5;stroke-linecap:round;stroke-linejoin:round;stroke-miterlimit:10;" d="
					M258.936,162.512c2.796,0.134,5.629-0.826,7.767-2.632c2.138-1.806,3.559-4.439,3.893-7.218"/>
			</g>
			<g>
				<rect x="233.661" y="105.934" style="fill:#FFFFFF;" width="29.475" height="30.521"/>
				<path style="fill:none;stroke:#110605;stroke-width:1.5;stroke-linecap:round;stroke-linejoin:round;stroke-miterlimit:10;" d="
					M239.433,114.328c5.593-0.105,11.186-0.211,16.779-0.316"/>
				<path style="fill:none;stroke:#110605;stroke-width:1.5;stroke-linecap:round;stroke-linejoin:round;stroke-miterlimit:10;" d="
					M239.819,127.559c5.008-0.135,10.016-0.27,15.024-0.405"/>
				<path style="fill:none;stroke:#110605;stroke-width:1.5;stroke-linecap:round;stroke-linejoin:round;stroke-miterlimit:10;" d="
					M243.135,130.547c2.862-0.004,5.724-0.009,8.586-0.013"/>
			</g>
		</g>
		<g>
			<g>
				<path style="fill:#A6C3A5;" d="M320.195,148.729l-15.085-1.803c-3.305-0.395-5.664-3.395-5.269-6.7l3.62-30.292
					c0.615-5.142,5.281-8.813,10.424-8.198l8.432,1.008c5.142,0.615,8.813,5.281,8.198,10.424l-3.62,30.292
					C326.5,146.765,323.5,149.124,320.195,148.729z"/>
				<path style="fill:none;stroke:#FFFFFF;stroke-width:1.5;stroke-linecap:round;stroke-linejoin:round;stroke-miterlimit:10;" d="
					M306.493,109.135c0.952-2.742,3.789-4.71,6.691-4.64"/>
				<path style="fill:none;stroke:#FFFFFF;stroke-width:1.5;stroke-linecap:round;stroke-linejoin:round;stroke-miterlimit:10;" d="
					M318.061,146.041c2.821,0.79,6.108-0.81,7.227-3.518"/>
			</g>
			<g>
				
					<rect x="306.213" y="116.731" transform="matrix(0.9929 0.1187 -0.1187 0.9929 17.0369 -36.5469)" style="fill:#FFFFFF;" width="18.387" height="16.113"/>
				<path style="fill:none;stroke:#110605;stroke-width:1.5;stroke-linecap:round;stroke-linejoin:round;stroke-miterlimit:10;" d="
					M310.254,123.052c3.321,0.285,6.641,0.569,9.962,0.854"/>
				<path style="fill:none;stroke:#110605;stroke-width:1.5;stroke-linecap:round;stroke-linejoin:round;stroke-miterlimit:10;" d="
					M310.461,125.291c3.119,0.414,6.238,0.828,9.357,1.243"/>
			</g>
			<g>
				<path style="fill:#789682;" d="M326.093,95.786l-14.237-1.701c-0.569-0.068-1.086,0.338-1.154,0.907l-0.845,7.073l16.298,1.948
					L327,96.939C327.068,96.37,326.662,95.854,326.093,95.786z"/>
				<path style="fill:#789682;" d="M321.168,80.834l-1.003-0.12c-2.62-0.313-4.998,1.557-5.311,4.177l-1.61,13.468l10.491,1.254
					l1.61-13.469C325.658,83.525,323.788,81.147,321.168,80.834z"/>
				<path style="fill:none;stroke:#FFFFFF;stroke-width:1.5;stroke-linecap:round;stroke-linejoin:round;stroke-miterlimit:10;" d="
					M316.331,84.574c0.386-1.729,2.391-2.903,4.088-2.394"/>
				
					<line style="fill:none;stroke:#110605;stroke-width:1.5;stroke-linecap:round;stroke-linejoin:round;stroke-miterlimit:10;" x1="313.822" y1="94.319" x2="324.25" y2="95.566"/>
			</g>
		</g>
		<g>
			<g>
				<path style="fill:#FF5548;" d="M387.161,176.592l-14.121-4.369c-1.858-0.575-2.898-2.547-2.323-4.405l3.455-11.166l20.85,6.451
					l-3.455,11.166C390.992,176.126,389.019,177.167,387.161,176.592z"/>
				<path style="fill:none;stroke:#110605;stroke-width:1.5;stroke-linecap:round;stroke-linejoin:round;stroke-miterlimit:10;" d="
					M372.099,164.029c2.722,0.875,5.444,1.751,8.167,2.626c-0.161,1.031,0.778,1.986,1.794,2.225
					c1.016,0.24,2.162-0.409,2.479-1.403c2.735,0.571,5.534,1.349,8.269,1.92"/>
			</g>
			<g>
				<path style="fill:#FE9EC2;" d="M383.495,93.587l-1.519,4.911l-10.074,57.684c-0.214,1.225,0.516,2.418,1.704,2.786l20.576,6.366
					c1.188,0.367,2.464-0.205,2.979-1.337l24.263-53.293l1.519-4.911L383.495,93.587z"/>
				
					<line style="fill:none;stroke:#110605;stroke-width:1.5;stroke-linecap:round;stroke-linejoin:round;stroke-miterlimit:10;" x1="381.975" y1="98.497" x2="421.423" y2="110.703"/>
				
					<line style="fill:none;stroke:#FFFFFF;stroke-width:1.5;stroke-linecap:round;stroke-linejoin:round;stroke-miterlimit:10;" x1="383.62" y1="105.934" x2="373.944" y2="154.498"/>
			</g>
			<g>
				<path style="fill:#FFFFFF;" d="M402.836,134.171c1.604-5.185-1.298-10.688-6.483-12.292c-5.185-1.604-10.688,1.298-12.292,6.483
					c-1.604,5.185,1.298,10.688,6.483,12.292C395.729,142.258,401.232,139.355,402.836,134.171z"/>
				<path style="fill:none;stroke:#110605;stroke-width:1.5;stroke-linecap:round;stroke-linejoin:round;stroke-miterlimit:10;" d="
					M389.471,128.694c3.313,1.117,6.626,2.235,9.94,3.353"/>
				<path style="fill:none;stroke:#110605;stroke-width:1.5;stroke-linecap:round;stroke-linejoin:round;stroke-miterlimit:10;" d="
					M388.662,130.913c2.328,0.88,4.657,1.761,6.985,2.641"/>
			</g>
		</g>
		<g>
			<g>
				<defs>
					<path id="SVGID_00000083777462737490088340000007538827278083413385_" d="M355.898,217.955
						c-4.117,14.538,4.331,29.66,18.869,33.777c14.538,4.117,29.66-4.331,33.777-18.869l1.626-5.743l-52.645-14.908L355.898,217.955
						z"/>
				</defs>
				<use xlink:href="#SVGID_00000083777462737490088340000007538827278083413385_"  style="overflow:visible;fill:#F4A141;"/>
				<clipPath id="SVGID_00000082349050776259573830000007490788434566267024_">
					<use xlink:href="#SVGID_00000083777462737490088340000007538827278083413385_"  style="overflow:visible;"/>
				</clipPath>
				<polygon style="clip-path:url(#SVGID_00000082349050776259573830000007490788434566267024_);fill:#FF5548;" points="
					386.819,280.098 359.076,271.741 380.909,190.388 369.74,188.165 357.425,244.119 347.39,241.911 361.87,176.12 
					393.676,182.455 371.585,264.777 379.755,267.238 402.818,185.034 412.712,187.809 				"/>
			</g>
			<g>
				
					<ellipse transform="matrix(0.0459 -0.9989 0.9989 0.0459 146.7968 593.0285)" style="fill:#FFBE50;" cx="383.847" cy="219.667" rx="27.358" ry="27.358"/>
				<path style="fill:none;stroke:#110605;stroke-width:1.5;stroke-linecap:round;stroke-linejoin:round;stroke-miterlimit:10;" d="
					M372.829,212.805c7.09-0.023,14.179-0.045,21.269-0.068"/>
				<path style="fill:none;stroke:#110605;stroke-width:1.5;stroke-linecap:round;stroke-linejoin:round;stroke-miterlimit:10;" d="
					M373.22,217.112c6.895-0.122,13.789-0.244,20.684-0.367"/>
				<path style="fill:none;stroke:#110605;stroke-width:1.5;stroke-linecap:round;stroke-linejoin:round;stroke-miterlimit:10;" d="
					M378.888,230.224c2.989,0.347,5.979,0.694,8.968,1.041"/>
				<path style="fill:none;stroke:#FFFFFF;stroke-width:1.5;stroke-linecap:round;stroke-linejoin:round;stroke-miterlimit:10;" d="
					M380.654,195.428c-4.915,0.395-9.679,2.486-13.295,5.838c-3.617,3.352-6.064,7.943-6.83,12.814"/>
			</g>
		</g>
		<g>
			<g>
				<path style="fill:#110605;" d="M443,297.209l-17.256-10.101L449.223,247c1.179-2.014,3.873-2.511,5.693-1.049l9.691,7.784
					c1.502,1.206,1.893,3.33,0.92,4.992L443,297.209z"/>
				
					<line style="fill:none;stroke:#FFFFFF;stroke-width:1.5;stroke-linecap:round;stroke-linejoin:round;stroke-miterlimit:10;" x1="450.683" y1="249.328" x2="430.036" y2="284.082"/>
			</g>
			<g>
				<g>
					<path style="fill:#FF5548;" d="M429.859,258.972l-11.111-3.918l10.787-30.595c0.649-1.84,1.914-3.4,3.581-4.414l5.837-3.551
						c1.035-0.629,2.386-0.137,2.773,1.011l0,0c0.872,2.586,0.852,5.39-0.055,7.964L429.859,258.972z"/>
					
						<path style="fill:none;stroke:#FFFFFF;stroke-width:1.5;stroke-linecap:round;stroke-linejoin:round;stroke-miterlimit:10;" d="
						M433.045,222.502c2.09-1.18,4.179-2.359,6.269-3.538"/>
				</g>
				<g>
					
						<rect x="411.831" y="258.485" transform="matrix(0.9431 0.3325 -0.3325 0.9431 111.798 -125.2405)" style="fill:#A24941;" width="19.995" height="11.096"/>
					
						<rect x="418.479" y="240.584" transform="matrix(0.9431 0.3325 -0.3325 0.9431 108.0782 -127.3126)" style="fill:#A24941;" width="15.093" height="23.092"/>
					
						<line style="fill:none;stroke:#110605;stroke-width:1.5;stroke-linecap:round;stroke-linejoin:round;stroke-miterlimit:10;" x1="416.556" y1="256.291" x2="430.79" y2="261.31"/>
					
						<path style="fill:none;stroke:#FFFFFF;stroke-width:1.5;stroke-linecap:round;stroke-linejoin:round;stroke-miterlimit:10;" d="
						M415.173,259.093c-0.537,1.916-1.075,3.832-1.612,5.747"/>
				</g>
			</g>
		</g>
	</g>
</g>
</svg>
