<?xml version="1.0" encoding="utf-8"?>
<!-- Generator: Adobe Illustrator 27.5.0, SVG Export Plug-In . SVG Version: 6.00 Build 0)  -->
<svg version="1.1" xmlns="http://www.w3.org/2000/svg" xmlns:xlink="http://www.w3.org/1999/xlink" x="0px" y="0px"
	 viewBox="0 0 3710 3710" style="enable-background:new 0 0 3710 3710;" xml:space="preserve">
<g id="Background">
	<g>
		<g>
			<rect style="fill:#000000;" width="3710" height="3710"/>
		</g>
	</g>
</g>
<g id="Illustration">
	<g>
		<path style="fill:#000000;" d="M3023.409,2643.634c-577.611,738.83-1930.312,750.692-2304.781,340.299
			c-149.455-163.769-188.915-445.045-246.921-858.206c-27.924-198.888-31.922-359.206-34.293-469.201
			c-8.175-374.16-12.245-561.258,47.988-688.542c172.53-364.346,771.871-506.153,1159.259-512.731
			c27.037-0.467,54.323-0.287,81.822,0.539c453.602,13.516,965.458,202.339,1281.142,605.83
			c32.631,41.625,63.102,85.551,91.238,131.813C3387.014,1667.274,3338.528,2240.609,3023.409,2643.634z"/>
		<g>
			<path style="fill:#BFC8D6;" d="M1462.981,2570.729c-149.33-48.664-110.189-111.656-95.451-182.115
				c14.74-70.459,92.267-197.755-108.41-232.499c-200.678-34.744-229.891-69.147-207.248-188.442
				c22.643-119.295-79.742-626.571-322.399-577.335c-34.232,6.946-73.522,24.41-97.565,50.21
				c-40.193,43.132-44.349,112.435-40.245,168.184c2.206,29.97,8.879,59.169,14.406,88.631
				c7.048,37.568,21.37,86.815,17.234,124.763c-3.849,35.326-26.356,69.234-41.665,100.423
				c-31.928,65.043-36.516,136.479,8.419,196.68c21.643,28.996,48.239,54.152,74.754,78.603
				c50.789,46.834,134.652,94.478,114.439,177.072c-8.673,35.443-28.525,66.755-32.203,103.691
				c-2.651,26.626,7.815,64.047,18.974,87.987c47.917,102.806,207.489,130.613,308.176,121.772
				c233.762-20.527,276.405,104.323,273.138,191.112c-3.269,86.788,221.515-212.22,221.515-212.22
				S1612.312,2619.393,1462.981,2570.729z"/>
			<g>
				<defs>
					<path id="SVGID_1_" d="M631.907,1440.548c24.043-25.8,63.334-43.264,97.565-50.21
						c242.657-49.236,345.041,458.041,322.399,577.335c-22.642,119.295,6.57,153.698,207.248,188.442s123.15,162.041,108.41,232.5
						c-14.739,70.458-53.879,133.451,95.452,182.115c149.331,48.663,105.869,96.516,105.869,96.516s-224.784,299.009-221.516,212.22
						c3.268-86.788-39.375-211.639-273.138-191.112c-100.687,8.841-260.259-18.966-308.176-121.772
						c-11.158-23.939-21.624-61.361-18.973-87.987c3.678-36.936,23.53-68.248,32.203-103.691
						c20.213-82.595-63.649-130.238-114.439-177.073c-26.515-24.45-53.112-49.606-74.755-78.603
						c-44.934-60.201-40.347-131.637-8.419-196.68c15.31-31.19,37.816-65.098,41.666-100.423
						c4.135-37.948-10.186-87.195-17.234-124.763c-5.527-29.462-12.201-58.661-14.407-88.631
						C587.559,1552.983,591.714,1483.68,631.907,1440.548z"/>
				</defs>
				<clipPath id="SVGID_00000105409620527296452100000013584823418993491329_">
					<use xlink:href="#SVGID_1_"  style="overflow:visible;"/>
				</clipPath>
				<g style="opacity:0.8;clip-path:url(#SVGID_00000105409620527296452100000013584823418993491329_);">
					<g>
						<path style="fill:#FFFFFF;" d="M1608.623,2813.462c1.755,0.385,3.568-0.575,4.205-2.309c0.696-1.893-0.274-3.992-2.168-4.687
							c-1.162-0.428-117.807-43.639-251.902-122.36c-123.558-72.535-287.635-190.914-367.62-342.946
							c-66.803-126.977-140.599-341.657-202.466-588.993c-55.476-221.789-81.29-387.802-74.197-420.168
							c0.432-1.971-0.815-3.917-2.786-4.349s-3.917,0.815-4.349,2.786c-8.297,37.86,24.316,223.887,74.247,423.504
							c62.003,247.878,136.025,463.151,203.086,590.621c80.805,153.591,246.081,272.883,370.5,345.911
							c134.643,79.028,251.801,122.421,252.968,122.849C1608.3,2813.381,1608.461,2813.427,1608.623,2813.462z"/>
					</g>
					<g>
						<path style="fill:#FFFFFF;" d="M794.827,1795.808c1.983,0,3.764-0.36,4.207-2.319c0.587-2.595,59.886-260.125,170.403-330.912
							c1.699-1.087,2.159-3.236,1.071-4.934c-1.088-1.699-3.363-2.138-5.062-1.05c-113.044,72.404-171.106,324.545-173.529,335.261
							c-0.444,1.967,0.893,3.955,2.886,3.955C794.812,1795.808,794.82,1795.808,794.827,1795.808z"/>
					</g>
					<g>
						<path style="fill:#FFFFFF;" d="M876.36,2074.835c1.463,0.321,3.035-0.287,3.877-1.63c1.071-1.709,0.553-3.963-1.156-5.034
							c-0.74-0.464-75.141-46.856-164.106-82.331c-120.207-47.931-208.362-54.202-262.021-18.64
							c-1.681,1.114-2.141,3.381-1.027,5.062c1.117,1.681,3.381,2.141,5.062,1.026c123.454-81.816,415.281,99.234,418.214,101.072
							C875.569,2074.591,875.961,2074.747,876.36,2074.835z"/>
					</g>
					<g>
						<path style="fill:#FFFFFF;" d="M1244.821,2618.996c0.383,0.084,0.786,0.107,1.198,0.059c2.004-0.229,3.442-2.04,3.212-4.044
							c-0.12-1.053-11.978-106.689-4.374-220.606c6.972-104.446,32.131-237.416,112.403-277.751c1.803-0.906,2.529-3.1,1.623-4.903
							c-0.905-1.803-3.101-2.531-4.903-1.623c-66.935,33.633-106.104,129.148-116.418,283.889
							c-7.637,114.563,4.29,220.766,4.412,221.826C1242.156,2617.435,1243.338,2618.671,1244.821,2618.996z"/>
					</g>
					<g>
						<path style="fill:#FFFFFF;" d="M1073.011,2468.21c1.535,0.336,3.171-0.352,3.973-1.795c0.98-1.763,0.345-3.987-1.418-4.966
							c-12.781-7.102-314.209-173.534-418.974-140.254c-1.923,0.611-2.986,2.665-2.375,4.586c0.611,1.923,2.664,2.988,4.586,2.375
							c101.799-32.335,410.113,137.954,413.215,139.676C1072.338,2468.012,1072.672,2468.136,1073.011,2468.21z"/>
					</g>
				</g>
			</g>
		</g>
		<g>
			<g>
				<g>
					<defs>
						<path id="SVGID_00000096743650157516674490000017054064160290093987_" d="M2707.936,1007.742
							c-30.469-17.142-72.835-21.824-107.259-18.092c-244.022,26.455-188.204,536.421-130.946,642.3
							c57.259,105.879,40.009,147.161-139.108,240.322c-179.116,93.161-67.606,190.095-32.497,252.22
							c35.109,62.124,91.022,109.859-35.405,200.73c-126.428,90.87-70.984,123.004-70.984,123.004s302.242,214.858,273.059,133.86
							c-29.183-80.999-26.443-211.757,200.546-262.656c97.769-21.924,240.142-96.172,254.492-207.692
							c3.342-25.969,1.976-64.465-8.534-88.819c-14.58-33.784-42.748-57.393-61.598-88.265
							c-43.928-71.943,20.963-142.163,54.858-201.676c17.695-31.069,35.254-62.829,46.979-96.727
							c24.344-70.378-1.469-136.478-51.186-188.318c-23.841-24.859-55.295-50.122-69.554-82.333
							c-15.316-34.603-16.596-85.428-21.235-123.035c-3.638-29.492-6.114-59.08-13.042-88.054
							C2783.635,1100.615,2758.872,1036.4,2707.936,1007.742z"/>
					</defs>
					<use xlink:href="#SVGID_00000096743650157516674490000017054064160290093987_"  style="overflow:visible;fill:#D8DEE8;"/>
					<clipPath id="SVGID_00000135658977800745870560000012049808287318319512_">
						<use xlink:href="#SVGID_00000096743650157516674490000017054064160290093987_"  style="overflow:visible;"/>
					</clipPath>
					<g style="opacity:0.8;clip-path:url(#SVGID_00000135658977800745870560000012049808287318319512_);">
						<g>
							<path style="fill:#FFFFFF;" d="M2198.133,2598.303c-1.542,0.891-3.543,0.53-4.666-0.917
								c-1.227-1.579-0.942-3.854,0.638-5.079c0.969-0.753,98.161-76.646,201.158-191.327
								c94.904-105.67,214.299-266.828,244.14-434.49c24.923-140.031,30.08-365.01,14.15-617.25
								c-14.285-226.186-39.819-390.766-56.251-419.207c-1-1.732-0.408-3.946,1.324-4.946c1.732-1,3.946-0.408,4.946,1.324
								c19.221,33.269,44.35,218.798,57.208,422.373c15.965,252.793,10.772,478.4-14.247,618.975
								c-30.147,169.381-150.399,331.762-245.969,438.157c-103.423,115.137-201.045,191.354-202.018,192.109
								C2198.414,2598.129,2198.275,2598.221,2198.133,2598.303z"/>
						</g>
						<g>
							<path style="fill:#FFFFFF;" d="M2660.919,1392.257c-1.723,0.995-3.692,0.82-4.7-0.898
								c-1.335-2.275-134.8-227.697-260.481-261.333c-1.932-0.516-3.02-2.4-2.502-4.331c0.517-1.932,2.53-3.027,4.462-2.51
								c128.554,34.403,259.242,255.092,264.753,264.486c1.011,1.724,0.22,3.574-1.511,4.574
								C2660.932,1392.249,2660.925,1392.253,2660.919,1392.257z"/>
						</g>
						<g>
							<path style="fill:#FFFFFF;" d="M2667.744,1680.403c-1.286,0.743-2.953,0.642-4.152-0.374
								c-1.525-1.292-1.714-3.577-0.422-5.103c0.56-0.661,56.889-66.855,130.261-127.116
								c99.137-81.421,180.524-113.852,241.905-96.394c1.923,0.547,3.038,2.55,2.492,4.473c-0.549,1.923-2.55,3.038-4.473,2.492
								c-141.217-40.164-362.442,218.607-364.66,221.226C2668.418,1679.934,2668.095,1680.2,2667.744,1680.403z"/>
						</g>
						<g>
							<path style="fill:#FFFFFF;" d="M2483.313,2305.216c-0.337,0.195-0.71,0.337-1.114,0.416c-1.961,0.386-3.865-0.892-4.25-2.854
								c-0.204-1.031-20.765-104.381-62.201-209.703c-37.991-96.565-101.74-214.605-189.694-228.569
								c-1.975-0.314-3.322-2.168-3.008-4.144c0.312-1.976,2.169-3.323,4.144-3.008c73.341,11.644,139.06,90.091,195.332,233.16
								c41.662,105.922,62.329,209.829,62.532,210.867C2485.36,2302.94,2484.615,2304.463,2483.313,2305.216z"/>
						</g>
						<g>
							<path style="fill:#FFFFFF;" d="M2600.267,2111.122c-1.349,0.779-3.101,0.621-4.292-0.501
								c-1.456-1.371-1.525-3.662-0.154-5.117c9.938-10.552,244.627-258.401,353.597-258.466c2-0.001,3.622,1.619,3.623,3.618
								c0.001,2-1.618,3.623-3.618,3.623c-105.884,0.065-345.918,253.629-348.331,256.189
								C2600.843,2110.731,2600.565,2110.949,2600.267,2111.122z"/>
						</g>
					</g>
				</g>
			</g>
			<g>
				<g>
					<defs>
						<path id="SVGID_00000173136079310673611700000016743482220092068260_" d="M3258.615,1208.922
							c-20.63-28.225-57.249-50.038-90.126-60.902c-233.056-77.017-393.524,410.253-385.274,530.34
							c8.25,120.087-24.553,150.513-226.17,161.099c-201.617,10.586-140.285,145.007-134.067,216.095
							c6.217,71.087,37.331,137.698-115.383,168.026c-152.714,30.328-115.565,82.544-115.565,82.544
							s186.073,320.767,193.068,234.956c6.995-85.811,63.661-203.685,291.34-155.974c98.067,20.55,258.407,11.956,317.669-83.598
							c13.8-22.251,28.505-57.854,29.029-84.374c0.726-36.789-15.13-69.946-19.497-105.853
							c-10.177-83.677,77.975-120.705,133.479-160.828c28.976-20.947,58.115-42.578,82.831-68.573
							c51.313-53.969,55.204-124.824,31.43-192.603c-11.4-32.502-29.563-68.526-29.195-103.75
							c0.396-37.839,20.287-84.628,31.645-120.777c8.907-28.349,18.912-56.305,24.61-85.545
							C3289.037,1324.811,3293.102,1256.106,3258.615,1208.922z"/>
					</defs>
					<use xlink:href="#SVGID_00000173136079310673611700000016743482220092068260_"  style="overflow:visible;fill:#BFC8D6;"/>
					<clipPath id="SVGID_00000163755348495862000000000016751424444123146155_">
						<use xlink:href="#SVGID_00000173136079310673611700000016743482220092068260_"  style="overflow:visible;"/>
					</clipPath>
					<g style="opacity:0.8;clip-path:url(#SVGID_00000163755348495862000000000016751424444123146155_);">
						<g>
							<path style="fill:#FFFFFF;" d="M2135.676,2445.365c-1.772,0.172-3.444-0.986-3.867-2.767
								c-0.462-1.946,0.74-3.898,2.685-4.359c1.194-0.284,121.094-29.092,262.347-90.799
								c130.155-56.858,305.587-154.072,402.206-294.307c80.696-117.124,178.595-319.751,268.595-555.927
								c80.704-211.781,125.647-372.151,122.474-404.844c-0.193-1.991,1.263-3.76,3.254-3.953c1.99-0.193,3.76,1.263,3.953,3.254
								c3.712,38.243-50.279,217.512-122.915,408.122c-90.197,236.693-188.389,439.877-269.397,557.457
								c-97.61,141.672-274.329,239.645-405.389,296.887c-141.83,61.945-262.255,90.871-263.454,91.155
								C2136.003,2445.323,2135.839,2445.349,2135.676,2445.365z"/>
						</g>
						<g>
							<path style="fill:#FFFFFF;" d="M3056.524,1539.61c-1.98,0-3.7-0.883-3.906-2.865
								c-0.272-2.624-28.356-263.134-128.811-345.815c-1.544-1.27-1.754-3.461-0.483-5.004c1.271-1.544,3.557-1.72,5.101-0.449
								c102.751,84.569,130.269,339.667,131.392,350.499c0.206,1.988-1.28,3.633-3.271,3.633
								C3056.539,1539.61,3056.531,1539.61,3056.524,1539.61z"/>
						</g>
						<g>
							<path style="fill:#FFFFFF;" d="M2943.362,1804.492c-1.478,0.143-2.954-0.639-3.624-2.06c-0.853-1.808-0.078-3.966,1.73-4.819
								c0.784-0.37,79.475-37.28,171.219-61.729c123.96-33.034,211.47-28.834,260.103,12.485c1.524,1.294,1.709,3.579,0.415,5.103
								c-1.297,1.523-3.579,1.709-5.103,0.415c-111.889-95.059-420.441,48.812-423.545,50.275
								C2944.169,1804.345,2943.765,1804.453,2943.362,1804.492z"/>
						</g>
						<g>
							<path style="fill:#FFFFFF;" d="M2516.652,2296.758c-0.387,0.038-0.786,0.012-1.186-0.083
								c-1.945-0.461-3.148-2.413-2.686-4.358c0.242-1.023,24.344-103.605,30.264-216.629
								c5.428-103.627-3.691-237.471-77.957-286.619c-1.668-1.104-2.125-3.349-1.021-5.017c1.103-1.669,3.351-2.126,5.017-1.021
								c61.927,40.982,89.242,139.606,81.186,293.133c-5.963,113.665-30.2,216.797-30.445,217.827
								C2519.458,2295.535,2518.15,2296.612,2516.652,2296.758z"/>
						</g>
						<g>
							<path style="fill:#FFFFFF;" d="M2703.508,2168.555c-1.551,0.151-3.08-0.719-3.699-2.234c-0.757-1.851,0.129-3.965,1.98-4.721
								c13.416-5.487,329.698-133.838,428.904-88.753c1.821,0.827,2.626,2.974,1.799,4.794c-0.827,1.821-2.974,2.627-4.794,1.798
								c-96.397-43.806-419.911,87.531-423.167,88.862C2704.194,2168.439,2703.851,2168.522,2703.508,2168.555z"/>
						</g>
					</g>
				</g>
			</g>
		</g>
		<g>
			
				<linearGradient id="SVGID_00000016062067517301834510000017090384314888831887_" gradientUnits="userSpaceOnUse" x1="2992.2014" y1="1132.6022" x2="1963.6337" y2="2313.7341">
				<stop  offset="0" style="stop-color:#FFC444"/>
				<stop  offset="0.9964" style="stop-color:#F36F56"/>
			</linearGradient>
			<polygon style="fill:url(#SVGID_00000016062067517301834510000017090384314888831887_);" points="2153.819,1436.574 
				2513.395,1301.626 3228.277,1520.276 2872.971,1667.181 			"/>
			<g>
				
					<linearGradient id="SVGID_00000162340791723131203630000015031217407860046732_" gradientUnits="userSpaceOnUse" x1="854.4585" y1="1985.7604" x2="2156.1074" y2="1985.7604">
					<stop  offset="0" style="stop-color:#311944"/>
					<stop  offset="1" style="stop-color:#893976"/>
				</linearGradient>
				<polygon style="fill:url(#SVGID_00000162340791723131203630000015031217407860046732_);" points="854.458,1548.461 
					2156.107,1436.574 2156.107,2534.947 				"/>
				
					<linearGradient id="SVGID_00000049900396462627754690000011836216791009548469_" gradientUnits="userSpaceOnUse" x1="2156.1074" y1="1650.953" x2="2875.26" y2="1650.953">
					<stop  offset="0" style="stop-color:#311944"/>
					<stop  offset="1" style="stop-color:#893976"/>
				</linearGradient>
				<polygon style="fill:url(#SVGID_00000049900396462627754690000011836216791009548469_);" points="2156.107,1436.574 
					2875.26,1667.181 2156.107,1865.332 				"/>
			</g>
			<g>
				
					<linearGradient id="SVGID_00000031189413078739782180000004638936751341343909_" gradientUnits="userSpaceOnUse" x1="1854.2854" y1="1454.5868" x2="2450.5513" y2="1454.5868">
					<stop  offset="0" style="stop-color:#AA80F9"/>
					<stop  offset="0.9964" style="stop-color:#6165D7"/>
				</linearGradient>
				<path style="fill:url(#SVGID_00000031189413078739782180000004638936751341343909_);" d="M2449.773,2192.388
					c0.467,0,0.779,3.118,0.779,4.824c0,39.992-134.086,72.712-299.435,72.712c-143.341,0-263.114-24.893-292.512-56.479h-4.319
					c0,0,0-8.202,0-21.373V1100.121c0-56.167,158.992-238.386,268.424-356.112c2.02-2.116,3.314-4.232,5.258-6.347
					c26.91-28.938,50.153-53.642,66.874-71.045l0.304-0.546c16.409-16.925,26.05-26.821,26.05-26.821l10.46,5.802l13.199,7.302
					l13.213,7.302l11.506,6.347l1.71,0.956l13.142,7.234l13.219,7.302l13.223,7.303l13.223,7.235l13.143,7.302l13.22,7.302
					l13.223,7.234l13.144,7.303l13.219,7.302l13.223,7.234l13.223,7.303l13.144,7.302l13.219,7.235l3.46,3.821
					c0,0-48.043,51.8-100.686,124.619v0.068c-3.51,18.563-18.077,38.491-26.789,59.238
					c-42.776,102.37,96.928,155.84,117.386,232.277c1.242,4.573,3.985,14.102,4.844,21.121h2.827v2.733
					c0,28.323,0.531,77.051,1.385,138.2c0.934,64.971,1.354,144.002,0.419,227.672l3.126,392.761l1.563,198.62l0.166,29.709
					H2449.773z"/>
				
					<linearGradient id="SVGID_00000024696257935952093550000014997017135606835882_" gradientUnits="userSpaceOnUse" x1="1808.719" y1="1405.3141" x2="2492.8088" y2="1903.4625">
					<stop  offset="0" style="stop-color:#AA80F9"/>
					<stop  offset="0.9964" style="stop-color:#6165D7"/>
				</linearGradient>
				<path style="fill:url(#SVGID_00000024696257935952093550000014997017135606835882_);" d="M2448.683,1964.059
					c-153.918,23.751-309.408,28.869-464.571,15.561c-43.866-3.821-91.221-9.077-129.826-15.833v-621.047
					c14.038,2.866,35.877,5.459,54.542,7.848c178.26,22.317,358.904,20.065,536.542-6.961c0.934,64.971,1.307,144.002,0.373,227.672
					L2448.683,1964.059z"/>
				<g style="opacity:0.9;">
					<path style="fill:#FFFFFF;" d="M2264.869,1550.573c-86.909,11.002-157.801,50.833-201.62,118.508
						c-11.931,18.425-20.115,40.882-20.835,62.089c-0.779,22.981,6.163,45.313,17.749,65.793
						c10.235,18.096,21.151,34.553,39.18,47.614c0.966,0.701,1.947,1.371,2.938,2.016c0.458,0.294,0.961,0.506,1.425,0.792
						c0.365-42.31,8.534-114.545,57.989-135.665c-19.74,31.828-35.389,96.695-33.994,145.291
						c42.636,9.708,96.603-9.989,128.2-31.477c23.295-15.838,39.225-39.152,50.382-62.747
						c29.019-61.376-14.066-128.626,15.037-189.647c4.284-8.981,6.922-21.566,16.329-27.653
						C2313.333,1546.467,2288.983,1547.519,2264.869,1550.573z"/>
					<path style="fill:#FFFFFF;" d="M2067.035,1575.34c3.737,6.026,8.786,15.596,14.539,27.553
						c-16.965,15.596-31.805,33.316-44.628,53.074c-15.146,23.392-23.931,49.794-24.838,74.423
						c-0.301,8.241,0.301,16.479,1.612,24.72c-0.301-0.177-0.503-0.264-0.705-0.441c-23.325-15.86-39.175-39.161-50.382-62.73
						c-28.98-61.402,14.135-128.648-15.047-189.695c-4.24-8.947-6.863-21.527-16.255-27.644c24.232,0.978,48.666,2.038,72.696,5.053
						c63.511,8.06,118.542,31.542,160.547,69.994c-27.264,11.516-51.797,26.489-73.406,44.742
						C2083.394,1585.528,2075.214,1578.797,2067.035,1575.34z"/>
				</g>
				
					<linearGradient id="SVGID_00000093875068410954651770000005060843555719597477_" gradientUnits="userSpaceOnUse" x1="1711.2075" y1="1267.2928" x2="2639.9158" y2="1943.5704">
					<stop  offset="0" style="stop-color:#AA80F9"/>
					<stop  offset="0.9964" style="stop-color:#6165D7"/>
				</linearGradient>
				<path style="opacity:0.3;fill:url(#SVGID_00000093875068410954651770000005060843555719597477_);" d="M2449.773,2192.388
					c0.467,0,0.779,3.118,0.779,4.824c0,39.992-134.086,72.712-299.435,72.712c-143.341,0-263.114-24.893-292.512-56.479h-4.319
					c0,0,0-8.202,0-21.373V1100.121c0-56.167,158.992-238.386,268.424-356.112c2.02-2.116,3.314-4.232,5.258-6.347
					c22.554,10.919,45.797,24.979,70.451,42.449c0,0,29.079,136.699-90.694,194.231c-98.928,47.5-225.007,210.814-200.117,376.245
					c5.21,34.807,17.147,69.748,37.446,103.735c59.11,98.822,160.665,193.344,157.786,311.617
					c-1.166,47.909-24.353,88.653-52.664,128.576c-15.867,22.317-48.072,53.096-67.36,85.105
					c-15.942,26.411-23.1,53.642-4.746,77.528c27.145,35.283,99.55,37.194,141.939,45.999
					c108.574,22.658,225.472,23.43,330.309,59.532l0.235,29.709H2449.773z"/>
				
					<linearGradient id="SVGID_00000093144265524160725120000009409167174262649728_" gradientUnits="userSpaceOnUse" x1="2107.5776" y1="716.9722" x2="2523.4917" y2="716.9722">
					<stop  offset="0" style="stop-color:#444B8C"/>
					<stop  offset="0.9964" style="stop-color:#26264F"/>
				</linearGradient>
				<path style="fill:url(#SVGID_00000093144265524160725120000009409167174262649728_);" d="M2513.626,729.062L2382.498,888.76
					c-6.069,7.37-17.735,9.008-26.131,3.753l-186.273-117.726l-54.754-34.601c-8.4-5.323-10.265-15.56-4.2-22.932l131.052-159.766
					c16.956-20.611,49.775-25.319,73.343-10.442l72.098,45.589l114.016,72.068C2525.216,679.583,2530.506,708.383,2513.626,729.062z
					"/>
				<g>
					
						<linearGradient id="SVGID_00000042698698890630538460000017938895861680351920_" gradientUnits="userSpaceOnUse" x1="3889.0464" y1="194.4027" x2="3916.3157" y2="194.4027" gradientTransform="matrix(0.8084 0.5887 -0.5887 0.8084 -822.7448 -1804.4163)">
						<stop  offset="0" style="stop-color:#AA80F9"/>
						<stop  offset="0.9964" style="stop-color:#6165D7"/>
					</linearGradient>
					<path style="fill:url(#SVGID_00000042698698890630538460000017938895861680351920_);" d="M2161.646,729.433
						c-2.212,2.666-6.469,3.253-9.507,1.312l-1.572-1.004c-3.038-1.941-3.708-5.677-1.495-8.343l124.759-150.337
						c2.212-2.666,6.469-3.254,9.507-1.312l1.572,1.004c3.038,1.941,3.708,5.676,1.495,8.343L2161.646,729.433z"/>
					
						<linearGradient id="SVGID_00000116223251600557741090000006671016825551247250_" gradientUnits="userSpaceOnUse" x1="3918.8347" y1="192.5884" x2="3946.104" y2="192.5884" gradientTransform="matrix(0.8084 0.5887 -0.5887 0.8084 -822.7448 -1804.4163)">
						<stop  offset="0" style="stop-color:#AA80F9"/>
						<stop  offset="0.9964" style="stop-color:#6165D7"/>
					</linearGradient>
					<path style="fill:url(#SVGID_00000116223251600557741090000006671016825551247250_);" d="M2186.794,745.503
						c-2.213,2.666-6.469,3.253-9.507,1.312l-1.572-1.004c-3.038-1.941-3.708-5.677-1.495-8.343l124.759-150.337
						c2.213-2.666,6.469-3.253,9.507-1.312l1.572,1.004c3.038,1.941,3.708,5.676,1.495,8.343L2186.794,745.503z"/>
					
						<linearGradient id="SVGID_00000053523733600011382100000008707016573446830513_" gradientUnits="userSpaceOnUse" x1="3948.6228" y1="190.7741" x2="3975.8921" y2="190.7741" gradientTransform="matrix(0.8084 0.5887 -0.5887 0.8084 -822.7448 -1804.4163)">
						<stop  offset="0" style="stop-color:#AA80F9"/>
						<stop  offset="0.9964" style="stop-color:#6165D7"/>
					</linearGradient>
					<path style="fill:url(#SVGID_00000053523733600011382100000008707016573446830513_);" d="M2211.943,761.573
						c-2.213,2.666-6.469,3.253-9.508,1.312l-1.572-1.004c-3.038-1.941-3.708-5.677-1.495-8.343l124.759-150.337
						c2.212-2.666,6.469-3.253,9.507-1.312l1.572,1.004c3.038,1.941,3.708,5.677,1.495,8.343L2211.943,761.573z"/>
					
						<linearGradient id="SVGID_00000103968782297342995170000014960005376215610521_" gradientUnits="userSpaceOnUse" x1="3978.4111" y1="188.9598" x2="4005.6804" y2="188.9598" gradientTransform="matrix(0.8084 0.5887 -0.5887 0.8084 -822.7448 -1804.4163)">
						<stop  offset="0" style="stop-color:#AA80F9"/>
						<stop  offset="0.9964" style="stop-color:#6165D7"/>
					</linearGradient>
					<path style="fill:url(#SVGID_00000103968782297342995170000014960005376215610521_);" d="M2237.092,777.642
						c-2.212,2.666-6.469,3.253-9.507,1.312l-1.572-1.004c-3.038-1.941-3.708-5.677-1.495-8.343l124.759-150.337
						c2.212-2.666,6.469-3.253,9.507-1.312l1.572,1.004c3.038,1.941,3.708,5.677,1.495,8.343L2237.092,777.642z"/>
					
						<linearGradient id="SVGID_00000097476365204369959230000005772289837538711697_" gradientUnits="userSpaceOnUse" x1="4008.1995" y1="187.1456" x2="4035.4685" y2="187.1456" gradientTransform="matrix(0.8084 0.5887 -0.5887 0.8084 -822.7448 -1804.4163)">
						<stop  offset="0" style="stop-color:#AA80F9"/>
						<stop  offset="0.9964" style="stop-color:#6165D7"/>
					</linearGradient>
					<path style="fill:url(#SVGID_00000097476365204369959230000005772289837538711697_);" d="M2262.241,793.712
						c-2.212,2.666-6.469,3.253-9.507,1.312l-1.572-1.004c-3.038-1.941-3.708-5.677-1.495-8.343l124.759-150.337
						c2.213-2.666,6.469-3.253,9.507-1.312l1.572,1.004c3.038,1.942,3.708,5.677,1.495,8.343L2262.241,793.712z"/>
					
						<linearGradient id="SVGID_00000128455612062229334960000015783642322490467514_" gradientUnits="userSpaceOnUse" x1="4037.9875" y1="185.3313" x2="4065.2568" y2="185.3313" gradientTransform="matrix(0.8084 0.5887 -0.5887 0.8084 -822.7448 -1804.4163)">
						<stop  offset="0" style="stop-color:#AA80F9"/>
						<stop  offset="0.9964" style="stop-color:#6165D7"/>
					</linearGradient>
					<path style="fill:url(#SVGID_00000128455612062229334960000015783642322490467514_);" d="M2287.39,809.781
						c-2.212,2.666-6.469,3.253-9.507,1.312l-1.572-1.004c-3.038-1.941-3.708-5.676-1.495-8.343l124.759-150.337
						c2.212-2.666,6.469-3.254,9.507-1.312l1.572,1.004c3.038,1.941,3.708,5.677,1.495,8.343L2287.39,809.781z"/>
					
						<linearGradient id="SVGID_00000046312341600000110070000012550798878535440023_" gradientUnits="userSpaceOnUse" x1="4067.7759" y1="183.5169" x2="4095.0449" y2="183.5169" gradientTransform="matrix(0.8084 0.5887 -0.5887 0.8084 -822.7448 -1804.4163)">
						<stop  offset="0" style="stop-color:#AA80F9"/>
						<stop  offset="0.9964" style="stop-color:#6165D7"/>
					</linearGradient>
					<path style="fill:url(#SVGID_00000046312341600000110070000012550798878535440023_);" d="M2312.539,825.851
						c-2.213,2.666-6.469,3.254-9.507,1.312l-1.572-1.004c-3.038-1.941-3.708-5.676-1.495-8.343l124.759-150.337
						c2.212-2.666,6.469-3.254,9.507-1.312l1.572,1.004c3.038,1.941,3.708,5.677,1.495,8.343L2312.539,825.851z"/>
					
						<linearGradient id="SVGID_00000052097165665640679180000004733572740915946428_" gradientUnits="userSpaceOnUse" x1="4097.564" y1="181.7027" x2="4124.833" y2="181.7027" gradientTransform="matrix(0.8084 0.5887 -0.5887 0.8084 -822.7448 -1804.4163)">
						<stop  offset="0" style="stop-color:#AA80F9"/>
						<stop  offset="0.9964" style="stop-color:#6165D7"/>
					</linearGradient>
					<path style="fill:url(#SVGID_00000052097165665640679180000004733572740915946428_);" d="M2337.688,841.921
						c-2.212,2.666-6.469,3.254-9.507,1.312l-1.572-1.004c-3.038-1.941-3.708-5.677-1.495-8.343l124.759-150.337
						c2.212-2.666,6.469-3.253,9.507-1.312l1.572,1.004c3.038,1.941,3.708,5.676,1.495,8.343L2337.688,841.921z"/>
					
						<linearGradient id="SVGID_00000082343462411630906650000008452572248680912262_" gradientUnits="userSpaceOnUse" x1="4127.3521" y1="179.8884" x2="4154.6216" y2="179.8884" gradientTransform="matrix(0.8084 0.5887 -0.5887 0.8084 -822.7448 -1804.4163)">
						<stop  offset="0" style="stop-color:#AA80F9"/>
						<stop  offset="0.9964" style="stop-color:#6165D7"/>
					</linearGradient>
					<path style="fill:url(#SVGID_00000082343462411630906650000008452572248680912262_);" d="M2362.836,857.99
						c-2.212,2.666-6.469,3.253-9.507,1.312l-1.572-1.004c-3.038-1.941-3.708-5.677-1.495-8.343l124.759-150.337
						c2.212-2.666,6.469-3.253,9.507-1.312l1.572,1.004c3.038,1.941,3.708,5.677,1.495,8.343L2362.836,857.99z"/>
				</g>
				
					<linearGradient id="SVGID_00000091002156045375675010000006948071318648142477_" gradientUnits="userSpaceOnUse" x1="2183.9299" y1="617.243" x2="2308.8242" y2="708.19">
					<stop  offset="0" style="stop-color:#444B8C"/>
					<stop  offset="0.9964" style="stop-color:#26264F"/>
				</linearGradient>
				<path style="opacity:0.3;fill:url(#SVGID_00000091002156045375675010000006948071318648142477_);" d="M2387.632,592.637
					c-3.733,13.649-11.435,26.957-26.447,35.488c-6.296,3.617-13.998,6.347-23.173,7.917c-1.014,0.205-2.104,0.342-3.19,0.682
					c-8.324,1.57-17.032,4.3-25.9,8.053c-11.199,4.572-22.634,10.646-33.989,17.744c-20.765,13.035-41.064,29.551-58.407,47.227
					c-11.902,11.943-22.398,24.432-30.723,36.716c0,0-0.076,0-0.076,0.068c-6.691,9.691-11.978,19.246-15.635,28.254l-54.754-34.601
					c-8.4-5.323-10.265-15.56-4.2-22.932l131.052-159.766c16.956-20.611,49.775-25.319,73.343-10.442L2387.632,592.637z"/>
			</g>
			<g>
				<g>
					
						<linearGradient id="SVGID_00000002342323480349707950000015424619013221385391_" gradientUnits="userSpaceOnUse" x1="1502.2048" y1="1021.9763" x2="1537.9824" y2="686.2158">
						<stop  offset="0" style="stop-color:#AA80F9"/>
						<stop  offset="0.9964" style="stop-color:#6165D7"/>
					</linearGradient>
					<path style="fill:url(#SVGID_00000002342323480349707950000015424619013221385391_);" d="M1741.735,968.913l-458.058-2.798
						v-87.508c0-8.249,7.988-14.893,17.491-14.533l423.407,16.034c9.623,0.365,17.16,6.9,17.16,14.895V968.913z"/>
					<path style="fill:#D8DEE8;" d="M1747.248,968.913l-458.575-21.593v-68.763c0-8.253,7.996-14.901,17.51-14.541l423.885,16.041
						c9.634,0.365,17.179,6.904,17.179,14.903V968.913z"/>
				</g>
				<g>
					<polygon style="fill:#D8DEE8;" points="1962.099,2422.833 1513.64,2447.76 1513.64,1226.046 1962.099,1191.572 					"/>
					<g>
						
							<linearGradient id="SVGID_00000068648358312969489800000012485197796743492513_" gradientUnits="userSpaceOnUse" x1="1606.8812" y1="1889.7616" x2="1914.5051" y2="1906.7172">
							<stop  offset="0.0036" style="stop-color:#EBEFF2"/>
							<stop  offset="1" style="stop-color:#FFFFFF"/>
						</linearGradient>
						<path style="fill:url(#SVGID_00000068648358312969489800000012485197796743492513_);" d="M1814.815,1344.824
							c-114.516,28.984,64.771,177.635-36.397,208.705c-80.329,24.669-70.756-199.06-144.263-135.549
							c-74.45,64.325,24.396,256.149,74.492,403.43c49.665,146.013,52.256,356.807-97.203,319.856
							c-41.796-10.333-72.191-25.451-97.804-42.208v348.703l448.46-24.927V1394.505
							C1926.444,1354.323,1875.259,1329.526,1814.815,1344.824z"/>
					</g>
				</g>
				<polygon style="fill:#97A6B7;" points="1513.874,2447.76 1065.693,2354.831 1065.039,1135.983 1513.874,1226.046 				"/>
				
					<linearGradient id="SVGID_00000033366859901391088930000014314481028924600725_" gradientUnits="userSpaceOnUse" x1="1177.3414" y1="1036.8694" x2="1363.838" y2="1117.1857">
					<stop  offset="0.0036" style="stop-color:#EBEFF2"/>
					<stop  offset="1" style="stop-color:#FFFFFF"/>
				</linearGradient>
				<polygon style="fill:url(#SVGID_00000033366859901391088930000014314481028924600725_);" points="1515.092,1229.953 
					1066.229,1136.287 1292.599,939.238 1292.599,939.238 				"/>
				<g style="opacity:0.3;">
					<polygon style="fill:#E6E6E6;" points="1292.599,939.238 1066.229,1136.287 1332.974,991.993 					"/>
				</g>
				<path style="fill:#D8DEE8;" d="M1065.509,2069.676l0.144,285.146l448.221,92.938v-347.889
					c-69.034-56.373-102.347-116.593-223.121-145.263C1207.436,1934.83,1125.04,2000.907,1065.509,2069.676z"/>
				
					<linearGradient id="SVGID_00000141413253564771896290000000295089339918825121_" gradientUnits="userSpaceOnUse" x1="1599.6725" y1="1315.6143" x2="1683.8553" y2="525.585">
					<stop  offset="0.0036" style="stop-color:#EBEFF2"/>
					<stop  offset="1" style="stop-color:#FFFFFF"/>
				</linearGradient>
				<polygon style="fill:url(#SVGID_00000141413253564771896290000000295089339918825121_);" points="1290.311,941.655 
					1747.248,941.655 1962.099,1191.572 1515.092,1229.953 				"/>
				<polygon style="fill:#E6E6E6;" points="1514.741,1228.07 1290.311,941.655 1317.884,1025.051 				"/>
			</g>
			
				<linearGradient id="SVGID_00000142149231732018344150000008734009018716007820_" gradientUnits="userSpaceOnUse" x1="563.4247" y1="2241.5635" x2="1440.3292" y2="2241.5635">
				<stop  offset="0" style="stop-color:#FFC444"/>
				<stop  offset="0.9964" style="stop-color:#F36F56"/>
			</linearGradient>
			<polygon style="fill:url(#SVGID_00000142149231732018344150000008734009018716007820_);" points="1552.463,1782.911 
				1552.463,2934.666 854.061,2627.19 854.061,1548.461 854.018,1549.077 			"/>
			
				<linearGradient id="SVGID_00000132784294764416879530000014060370470574397569_" gradientUnits="userSpaceOnUse" x1="854.0607" y1="2241.5635" x2="1552.4633" y2="2241.5635">
				<stop  offset="0" style="stop-color:#FFC444"/>
				<stop  offset="0.9964" style="stop-color:#F36F56"/>
			</linearGradient>
			<path style="opacity:0.4;fill:url(#SVGID_00000132784294764416879530000014060370470574397569_);" d="M1552.463,2867.586v67.08
				L854.061,2627.19V1548.461l0.846,0.616c35.107,76.048,43.242,167.778,48.571,252.079
				c10.66,168.804,79.095,329.716,227.193,380.912c19.473,6.764,39.087,13.99,58.815,21.78
				c151.431,60.059,299.562,157.119,307.094,366.717C1501.089,2693.912,1510.349,2788.565,1552.463,2867.586z"/>
			
				<linearGradient id="SVGID_00000145029301590383827810000002032459580340300459_" gradientUnits="userSpaceOnUse" x1="1153.0325" y1="1589.1013" x2="81.9906" y2="2819.0073">
				<stop  offset="0" style="stop-color:#FFC444"/>
				<stop  offset="0.9964" style="stop-color:#F36F56"/>
			</linearGradient>
			<polygon style="fill:url(#SVGID_00000145029301590383827810000002032459580340300459_);" points="1554.24,1781.63 
				1046.905,2017.362 467.825,1722.697 852.17,1548.461 			"/>
			<g>
				<g>
					
						<linearGradient id="SVGID_00000172404836711219234800000000205442334170939308_" gradientUnits="userSpaceOnUse" x1="2181.574" y1="1478.0496" x2="1636.3403" y2="2645.2534">
						<stop  offset="0" style="stop-color:#FF9085"/>
						<stop  offset="1" style="stop-color:#FB6FBB"/>
					</linearGradient>
					<path style="fill:url(#SVGID_00000172404836711219234800000000205442334170939308_);" d="M2266.125,2157.305
						c5.107-188.047,4.489-431.013-132.218-613.081c-90.162-120.08-122.631-331.55-122.631-331.55l-86.856,19.872l-86.855-19.872
						c0,0-32.469,211.47-122.629,331.55c-136.706,182.069-137.325,425.034-132.218,613.081
						c-2.242,41.349-1.938,78.735,0.929,109.906c0.377,4.111,1.077,8.147,1.919,12.14c0.004,1.307,0.015,2.632,0.017,3.928
						c0.048,46.221,31.162,83.69,75.822,91.923c49.92,9.204,149.127,17.284,263.015,14.572
						c113.89,2.713,213.095-5.368,263.015-14.572c44.662-8.233,75.776-45.702,75.824-91.923c0.002-1.296,0.012-2.621,0.017-3.928
						c0.842-3.992,1.542-8.029,1.919-12.14C2268.063,2236.04,2268.367,2198.654,2266.125,2157.305z"/>
					
						<linearGradient id="SVGID_00000123423449181878592370000016941462126629294219_" gradientUnits="userSpaceOnUse" x1="1581.2391" y1="1801.4998" x2="2233.9763" y2="1801.4998">
						<stop  offset="0" style="stop-color:#FF9085"/>
						<stop  offset="1" style="stop-color:#FB6FBB"/>
					</linearGradient>
					<path style="opacity:0.3;fill:url(#SVGID_00000123423449181878592370000016941462126629294219_);" d="M2142.927,2219.105
						c-75.287-208.616-346.022-169.69-397.167-317.616c-50.827-147.007,187.81-264.187,192.582-521.62
						c1.007-54.296-8.397-104.446-23.085-149.42l-77.691-17.775c0,0-32.468,211.469-122.629,331.549
						c-170.004,226.417-129.555,547.03-129.353,739.053c0.048,46.222,31.162,83.692,75.823,91.925
						c85.814,15.819,317.191,28.39,518.64-11.645c20.684-4.111,39.348-14.791,53.929-29.645
						c-20.485-4.724-38.427-13.533-52.869-27.395C2155.988,2282.409,2156.983,2258.053,2142.927,2219.105z"/>
					<rect x="1843.265" y="1045.899" style="fill:#D8DEE8;" width="166.421" height="69.897"/>
					
						<linearGradient id="SVGID_00000052806456564086199110000005608854637724610990_" gradientUnits="userSpaceOnUse" x1="1843.2653" y1="1080.8475" x2="2009.6862" y2="1080.8475">
						<stop  offset="0" style="stop-color:#311944"/>
						<stop  offset="1" style="stop-color:#6B3976"/>
					</linearGradient>
					
						<rect x="1843.265" y="1045.899" style="fill:url(#SVGID_00000052806456564086199110000005608854637724610990_);" width="166.421" height="69.897"/>
					
						<linearGradient id="SVGID_00000100357372130543409060000009276867349191462039_" gradientUnits="userSpaceOnUse" x1="1799.9958" y1="1174.0431" x2="2049.6272" y2="1174.0431">
						<stop  offset="0" style="stop-color:#311944"/>
						<stop  offset="1" style="stop-color:#6B3976"/>
					</linearGradient>
					<path style="fill:url(#SVGID_00000100357372130543409060000009276867349191462039_);" d="M2049.627,1119.751
						c0-16.89-13.692-30.583-30.583-30.583h-188.466c-16.89,0-30.583,13.692-30.583,30.583v108.584
						c0,16.89,13.692,30.583,30.583,30.583h188.466c16.89,0,30.583-13.692,30.583-30.583V1119.751z"/>
					<g>
						
							<linearGradient id="SVGID_00000018921783837926677810000005560536045266975364_" gradientUnits="userSpaceOnUse" x1="1630.2466" y1="1024.7124" x2="2069.5977" y2="1024.7124">
							<stop  offset="0" style="stop-color:#311944"/>
							<stop  offset="1" style="stop-color:#6B3976"/>
						</linearGradient>
						<path style="fill:url(#SVGID_00000018921783837926677810000005560536045266975364_);" d="M2069.598,1033.663
							c0,18.821-16.914,35.535-35.735,35.535h-387.865c-9.722,0-15.75-9.337-15.75-19.059v-29.116
							c0-9.313,6.328-17.015,15.625-17.572l386.418-23.163c9.375-0.561,19.163,2.771,25.999,9.211
							c6.837,6.439,11.309,15.415,11.309,24.807V1033.663z"/>
						
							<linearGradient id="SVGID_00000029767809767223113850000006835891132972323502_" gradientUnits="userSpaceOnUse" x1="1630.2466" y1="1064.2053" x2="1733.4275" y2="1064.2053">
							<stop  offset="0" style="stop-color:#311944"/>
							<stop  offset="1" style="stop-color:#6B3976"/>
						</linearGradient>
						<path style="fill:url(#SVGID_00000029767809767223113850000006835891132972323502_);" d="M1733.427,1064.205
							c0,6.434-5.216,11.649-11.65,11.649h-79.882c-6.434,0-11.649-5.216-11.649-11.649l0,0c0-6.434,5.216-11.65,11.649-11.65
							h79.882C1728.212,1052.556,1733.427,1057.772,1733.427,1064.205L1733.427,1064.205z"/>
					</g>
					<g>
						
							<linearGradient id="SVGID_00000085957665535625391030000003254515970317037698_" gradientUnits="userSpaceOnUse" x1="1813.3094" y1="1172.379" x2="1823.2948" y2="1172.379">
							<stop  offset="0" style="stop-color:#311944"/>
							<stop  offset="1" style="stop-color:#6B3976"/>
						</linearGradient>
						<path style="fill:url(#SVGID_00000085957665535625391030000003254515970317037698_);" d="M1823.295,1223.969
							c0,2.757-2.235,4.993-4.993,4.993l0,0c-2.757,0-4.993-2.235-4.993-4.993v-103.181c0-2.757,2.235-4.993,4.993-4.993l0,0
							c2.757,0,4.993,2.235,4.993,4.993V1223.969z"/>
						
							<linearGradient id="SVGID_00000039845369781769435960000012023738705400221621_" gradientUnits="userSpaceOnUse" x1="1863.2358" y1="1172.379" x2="1873.2209" y2="1172.379">
							<stop  offset="0" style="stop-color:#311944"/>
							<stop  offset="1" style="stop-color:#6B3976"/>
						</linearGradient>
						<path style="fill:url(#SVGID_00000039845369781769435960000012023738705400221621_);" d="M1873.221,1223.969
							c0,2.757-2.235,4.993-4.993,4.993l0,0c-2.757,0-4.993-2.235-4.993-4.993v-103.181c0-2.757,2.235-4.993,4.993-4.993l0,0
							c2.757,0,4.993,2.235,4.993,4.993V1223.969z"/>
						
							<linearGradient id="SVGID_00000016063285872286055670000001729496067590747812_" gradientUnits="userSpaceOnUse" x1="1909.8336" y1="1172.379" x2="1919.8188" y2="1172.379">
							<stop  offset="0" style="stop-color:#311944"/>
							<stop  offset="1" style="stop-color:#6B3976"/>
						</linearGradient>
						<path style="fill:url(#SVGID_00000016063285872286055670000001729496067590747812_);" d="M1919.819,1223.969
							c0,2.757-2.235,4.993-4.993,4.993l0,0c-2.757,0-4.993-2.235-4.993-4.993v-103.181c0-2.757,2.235-4.993,4.993-4.993l0,0
							c2.757,0,4.993,2.235,4.993,4.993V1223.969z"/>
						
							<linearGradient id="SVGID_00000078011041231517642170000010355785350716039043_" gradientUnits="userSpaceOnUse" x1="1956.4315" y1="1172.379" x2="1966.4167" y2="1172.379">
							<stop  offset="0" style="stop-color:#311944"/>
							<stop  offset="1" style="stop-color:#6B3976"/>
						</linearGradient>
						<path style="fill:url(#SVGID_00000078011041231517642170000010355785350716039043_);" d="M1966.417,1223.969
							c0,2.757-2.235,4.993-4.993,4.993l0,0c-2.757,0-4.993-2.235-4.993-4.993v-103.181c0-2.757,2.235-4.993,4.993-4.993l0,0
							c2.757,0,4.993,2.235,4.993,4.993V1223.969z"/>
						
							<linearGradient id="SVGID_00000029029292614918272420000014937925096856498842_" gradientUnits="userSpaceOnUse" x1="2006.3577" y1="1172.379" x2="2016.343" y2="1172.379">
							<stop  offset="0" style="stop-color:#311944"/>
							<stop  offset="1" style="stop-color:#6B3976"/>
						</linearGradient>
						<path style="fill:url(#SVGID_00000029029292614918272420000014937925096856498842_);" d="M2016.343,1223.969
							c0,2.757-2.235,4.993-4.993,4.993l0,0c-2.757,0-4.993-2.235-4.993-4.993v-103.181c0-2.757,2.235-4.993,4.993-4.993l0,0
							c2.757,0,4.993,2.235,4.993,4.993V1223.969z"/>
					</g>
				</g>
			</g>
			<g>
				
					<linearGradient id="SVGID_00000021800598967751302100000006573355370333936023_" gradientUnits="userSpaceOnUse" x1="3270.0769" y1="1583.4728" x2="3179.7488" y2="2878.1787" gradientTransform="matrix(0.9786 0.2057 -0.2057 0.9786 -542.5585 -478.2391)">
					<stop  offset="0.0036" style="stop-color:#E38DDD"/>
					<stop  offset="1" style="stop-color:#9571F6"/>
				</linearGradient>
				<path style="fill:url(#SVGID_00000021800598967751302100000006573355370333936023_);" d="M2799.038,1199.336
					c-92.687,281.906-192.03,573.826-285.791,858.214c-6.162,18.635-12.333,37.454-18.423,56.042
					c-128.369-26.982-248.575-38.206-376.915-65.182c30.869-316.462,60.977-658.716,91.424-973.024L2799.038,1199.336z"/>
				
					<linearGradient id="SVGID_00000058586818357659733590000000549582502894875011_" gradientUnits="userSpaceOnUse" x1="3374.1206" y1="334.6603" x2="3287.4048" y2="1192.8477" gradientTransform="matrix(0.9786 0.2057 -0.2057 0.9786 -542.5585 -478.2391)">
					<stop  offset="0.0036" style="stop-color:#E38DDD"/>
					<stop  offset="1" style="stop-color:#9571F6"/>
				</linearGradient>
				<path style="fill:url(#SVGID_00000058586818357659733590000000549582502894875011_);" d="M2793.307,1155.628l-561.133-117.943
					c-7.728-1.624-14.179,3.863-15.804,11.59l-5.554,26.424l584.672,122.891l5.554-26.424
					C2802.667,1164.438,2801.035,1157.252,2793.307,1155.628z"/>
				
					<linearGradient id="SVGID_00000178199472911910040710000018202143884244182656_" gradientUnits="userSpaceOnUse" x1="3012.6694" y1="1439.9127" x2="3512.1265" y2="1439.9127" gradientTransform="matrix(0.9786 0.2057 -0.2057 0.9786 -542.5585 -478.2391)">
					<stop  offset="0.0036" style="stop-color:#E38DDD"/>
					<stop  offset="1" style="stop-color:#9571F6"/>
				</linearGradient>
				<path style="opacity:0.3;fill:url(#SVGID_00000178199472911910040710000018202143884244182656_);" d="M2513.16,2057.961
					c-6.162,18.635-12.289,37.248-18.38,55.837c-128.369-26.981-248.554-38.309-376.894-65.285
					c30.869-316.462,60.999-658.819,91.445-973.127l65.393,13.745c-17.706,54.238-33.942,141.729,24.499,213.712
					c5.28,6.492,10.079,13.068,14.457,19.309c67.424,95.678,32.688,162.024-33.195,264.9c-4.161,6.477-7.976,13.51-11.472,20.925
					c-55.445,117.742-24.902,343.825,145.328,410.455C2454.295,2034.089,2486.91,2046.908,2513.16,2057.961z"/>
				<path style="opacity:0.3;fill:#D8DEE8;" d="M2508.718,2084.979l-46.667,222.028l-3.747-0.788
					c-6.245,18.007-93.601,12.621-197.846-9.29s-186.377-52.149-184.844-71.147l1.589,0.334l46.667-222.027l-1.589-0.334
					c-0.755,15.297,80.6,49.236,184.844,71.147c104.245,21.911,192.379,23.596,197.846,9.29L2508.718,2084.979z"/>
				<path style="fill:#D8DEE8;" d="M2508.718,2084.979l-39.667,188.723l-3.747-0.788c-5.467,14.307-93.601,12.621-197.846-9.29
					s-185.599-55.85-184.844-71.147l1.589,0.334l39.667-188.723l-1.589-0.334c-0.755,15.297,80.6,49.236,184.844,71.147
					c104.245,21.911,192.379,23.596,197.846,9.29L2508.718,2084.979z"/>
				<path style="fill:#D8DEE8;" d="M2307.397,2270.694c-1.282,6.101-7.267,10.006-13.368,8.724l-85.221-17.913
					c-6.101-1.282-10.007-7.267-8.724-13.368l0.023-0.111c1.282-6.101,7.267-10.007,13.368-8.724l85.221,17.913
					c6.1,1.282,10.006,7.267,8.724,13.368L2307.397,2270.694z"/>
			</g>
			
				<linearGradient id="SVGID_00000148646010991296050680000006769231132789501609_" gradientUnits="userSpaceOnUse" x1="1552.4633" y1="2300.9316" x2="2875.4993" y2="2300.9316">
				<stop  offset="0" style="stop-color:#FFC444"/>
				<stop  offset="0.9964" style="stop-color:#F36F56"/>
			</linearGradient>
			<polygon style="fill:url(#SVGID_00000148646010991296050680000006769231132789501609_);" points="2875.499,2768.987 
				1552.463,2934.666 1552.463,1781.63 2754.611,1677.397 2872.066,1667.198 			"/>
			
				<linearGradient id="SVGID_00000040577025180520946110000015231842272017312419_" gradientUnits="userSpaceOnUse" x1="1552.4633" y1="2300.9316" x2="2875.4993" y2="2300.9316">
				<stop  offset="0" style="stop-color:#FFC444"/>
				<stop  offset="0.9964" style="stop-color:#F36F56"/>
			</linearGradient>
			<path style="opacity:0.5;fill:url(#SVGID_00000040577025180520946110000015231842272017312419_);" d="M2875.499,2768.987
				l-1323.036,165.679v-65.646c24.567-11.941,57.054-21.319,87.701-27.828c102.592-21.83,286.191,16.247,350.249-90.449
				c82.299-137.236,11.853-313.061,175.484-406.995c77.224-44.277,169.323-40.639,254.389-51.501
				c72.62-9.328,140.267-29.261,189.616-98.598c79.226-111.563,84.994-256.485,105.287-386.958
				c8.097-52.119,22.564-94.652,40.295-129.294l117.018-10.199L2875.499,2768.987z"/>
		</g>
		<g>
			<g>
				<g>
					
						<linearGradient id="SVGID_00000072964559870968007880000005074501700916218553_" gradientUnits="userSpaceOnUse" x1="2236.5664" y1="2661.4663" x2="3147.4233" y2="2661.4663">
						<stop  offset="0.0036" style="stop-color:#26264F"/>
						<stop  offset="1" style="stop-color:#444B8C"/>
					</linearGradient>
					<path style="fill:url(#SVGID_00000072964559870968007880000005074501700916218553_);" d="M2295.486,3062.759
						c-20.992,0-40.552-10.185-51.048-28.365c-10.496-18.179-10.496-40.211,0-58.391l396.509-686.497
						c10.495-18.179,30.056-29.334,51.047-29.334c20.993,0,40.554,11.363,51.049,29.543l396.508,686.807
						c10.497,18.179,10.497,39.675-0.001,57.856c-10.492,18.177-30.052,28.38-51.046,28.38H2295.486z"/>
					
						<linearGradient id="SVGID_00000047755936289673992570000007068370729573603218_" gradientUnits="userSpaceOnUse" x1="2262.1067" y1="2663.8247" x2="3121.8804" y2="2663.8247">
						<stop  offset="0" style="stop-color:#FCB148"/>
						<stop  offset="0.0521" style="stop-color:#FDBA46"/>
						<stop  offset="0.1424" style="stop-color:#FFC244"/>
						<stop  offset="0.3183" style="stop-color:#FFC444"/>
						<stop  offset="0.4849" style="stop-color:#FDB946"/>
						<stop  offset="0.7754" style="stop-color:#F99C4D"/>
						<stop  offset="0.8658" style="stop-color:#F8924F"/>
						<stop  offset="1" style="stop-color:#F8924F"/>
					</linearGradient>
					<path style="fill:url(#SVGID_00000047755936289673992570000007068370729573603218_);" d="M3117.409,3023.871
						c-5.96,10.323-16.987,17.831-28.908,17.831h-793.018c-11.922,0-22.932-7.508-28.893-17.831
						c-5.977-10.324-5.977-23.634,0-33.958l396.493-687.051c4.89-8.454,13.152-14.398,22.516-16.22
						c2.078-0.416,4.219-0.695,6.392-0.695c11.921,0,22.948,6.324,28.909,16.664l396.509,687.32
						C3123.371,3000.254,3123.371,3013.547,3117.409,3023.871z"/>
					
						<linearGradient id="SVGID_00000029038262976447857070000013483671018276408756_" gradientUnits="userSpaceOnUse" x1="2262.1067" y1="2664.1721" x2="2831.7134" y2="2664.1721">
						<stop  offset="0" style="stop-color:#FCB148"/>
						<stop  offset="0.0521" style="stop-color:#FDBA46"/>
						<stop  offset="0.1424" style="stop-color:#FFC244"/>
						<stop  offset="0.3183" style="stop-color:#FFC444"/>
						<stop  offset="0.4849" style="stop-color:#FDB946"/>
						<stop  offset="0.7754" style="stop-color:#F99C4D"/>
						<stop  offset="0.8658" style="stop-color:#F8924F"/>
						<stop  offset="1" style="stop-color:#F8924F"/>
					</linearGradient>
					<path style="opacity:0.3;fill:url(#SVGID_00000029038262976447857070000013483671018276408756_);" d="M2673.454,2961.067
						c-84.857,35.221-141.987,52.559-177.656,80.635h-200.316c-11.922,0-22.932-7.508-28.893-17.831
						c-5.977-10.324-5.977-23.634,0-33.958l396.493-687.051c4.89-8.454,13.152-14.398,22.516-16.22
						c-34.773,68.588-82.651,210.854,36.084,324.859C2884.669,2768.015,2864.933,2881.596,2673.454,2961.067z"/>
				</g>
			</g>
			<g>
				
					<linearGradient id="SVGID_00000016066605369223053590000013134108274376113853_" gradientUnits="userSpaceOnUse" x1="2643.73" y1="2645.3354" x2="2739.1843" y2="2645.3354">
					<stop  offset="0" style="stop-color:#444B8C"/>
					<stop  offset="0.9964" style="stop-color:#26264F"/>
				</linearGradient>
				<path style="fill:url(#SVGID_00000016066605369223053590000013134108274376113853_);" d="M2709.062,2784.916l-34.554-0.825
					c-9.631-0.23-17.598-8.466-18.103-18.16l-12.649-243.436c-0.262-5.017,1.543-9.154,4.986-12.547
					c3.439-3.392,8.21-4.483,13.192-4.136l59.509,4.144c4.877,0.34,9.532,1.957,12.879,5.769c3.344,3.806,5.091,8.372,4.839,13.276
					l-12.307,239.002C2726.36,2777.56,2718.553,2785.143,2709.062,2784.916z"/>
				
					<linearGradient id="SVGID_00000058549825080578573650000010546176027854685873_" gradientUnits="userSpaceOnUse" x1="2642.7512" y1="2880.6255" x2="2741.2385" y2="2880.6255">
					<stop  offset="0" style="stop-color:#444B8C"/>
					<stop  offset="0.9964" style="stop-color:#26264F"/>
				</linearGradient>
				<path style="fill:url(#SVGID_00000058549825080578573650000010546176027854685873_);" d="M2655.737,2844.38
					c8.628-8.24,20.768-12.226,36.378-11.977c16.091,0.257,28.289,4.499,36.64,12.71c8.329,8.188,12.484,20.152,12.484,35.911
					c0,15.194-4.247,26.951-12.762,35.287c-8.538,8.361-20.644,12.549-36.362,12.549c-15.422,0-27.514-4.321-36.235-12.986
					c-8.745-8.688-13.128-20.573-13.128-35.636C2642.751,2864.602,2647.086,2852.643,2655.737,2844.38z"/>
			</g>
		</g>
		<g>
			
				<linearGradient id="SVGID_00000107561370518799167820000004749070432672248474_" gradientUnits="userSpaceOnUse" x1="-4380.2603" y1="440.6628" x2="-4298.2695" y2="942.0674" gradientTransform="matrix(-0.981 -0.194 -0.194 0.981 -2337.3301 236.6994)">
				<stop  offset="0" style="stop-color:#FFC444"/>
				<stop  offset="0.9964" style="stop-color:#F36F56"/>
			</linearGradient>
			<path style="fill:url(#SVGID_00000107561370518799167820000004749070432672248474_);" d="M1659.264,1951.016
				c0,0,7.856-30.81,20.929-38.945c13.073-8.131,31.551-16.826,35.785-20.399c4.234-3.573,9.179,7.106-3.022,15.278
				c-12.198,8.173-12.198,8.173-12.198,8.173c-0.256,2.254,0.087,4.007,0.499,5.241c1.933,5.785,8.526,9.75,16.674,10.5
				c31.303,6.556,43.534,6.876,48.307,5.479c0.708-0.208,3.431-1.091,4.581,0.119c1.841,1.94-1.47,8.089-2.883,10.244
				c-8.47,12.935-37.867,18.561-59.878,8.444c-8.041-3.692-11.118-7.66-16.985-6.664c-9.316,1.581-15.039,13.871-18.423,24.046
				L1659.264,1951.016z"/>
			<path style="fill:#FFFFFF;" d="M1684.512,1960.786c-8.914-7.924-17.828-15.846-26.741-23.769
				c-3.263,3.297-50.846,49.73-117.364,35.656c-45.8-9.693-72.218-47.305-89.138-71.311
				c-50.826-72.109-20.428-125.019-75.153-174.017c-15.197-13.605-45.007-30.081-64.497-25.057
				c-46.438,11.97-73.172,151.624-28.228,261.471c9.071,22.171,59.024,144.251,172.335,157.476
				C1547.215,2131.914,1644.229,2067.452,1684.512,1960.786z"/>
			
				<linearGradient id="SVGID_00000141422271948285762510000009019789706509323154_" gradientUnits="userSpaceOnUse" x1="-3897.6487" y1="1964.0503" x2="-3473.4333" y2="1964.0503" gradientTransform="matrix(-1 0 0 1 -2213.1372 0)">
				<stop  offset="0" style="stop-color:#AA80F9"/>
				<stop  offset="0.9964" style="stop-color:#6165D7"/>
			</linearGradient>
			<path style="opacity:0.15;fill:url(#SVGID_00000141422271948285762510000009019789706509323154_);" d="M1322.018,1835.994
				c83.746,66.146,74.425,193.013,125.907,199.445c15.725,1.965,14.861-10.091,52.368-22.284
				c54.859-17.836,80.631,0.18,119.222-13.371c15.982-5.613,36.772-17.6,57.247-45.886c2.584,2.297,5.168,4.592,7.749,6.888
				c-40.282,106.666-137.297,171.127-228.786,160.448c-113.311-13.225-163.264-135.305-172.335-157.476
				c-21.089-51.542-26.395-109.646-21.289-158.042C1281.432,1811.357,1302.43,1820.523,1322.018,1835.994z"/>
			
				<linearGradient id="SVGID_00000114781456417751185710000017224568702018822836_" gradientUnits="userSpaceOnUse" x1="150.6985" y1="3176.061" x2="240.0382" y2="3176.061" gradientTransform="matrix(-0.9996 0.0289 0.0289 0.9996 1198.5385 -31.2392)">
				<stop  offset="0" style="stop-color:#444B8C"/>
				<stop  offset="0.9964" style="stop-color:#26264F"/>
			</linearGradient>
			<path style="fill:url(#SVGID_00000114781456417751185710000017224568702018822836_);" d="M1057.117,3129.63
				c-4.885,3.972-5.785,13.889-6.37,20.371c-0.264,2.896-0.394,4.344-0.071,5.367c2.361,7.46,16.83,8.245,39.519,10.563
				c35.856,3.663,46.526,6.485,49.332,1.15c2.63-5-3.734-13.187-4.451-14.09c-3.853-4.853-8.581-6.618-17.724-9.627
				c-16.916-5.568-28.346-8.617-31.807-9.541C1063.935,3128.054,1060.325,3127.023,1057.117,3129.63z"/>
			
				<linearGradient id="SVGID_00000029726199485868128760000014963626828345933757_" gradientUnits="userSpaceOnUse" x1="581.6609" y1="3265.0876" x2="620.8556" y2="3183.9636" gradientTransform="matrix(-0.9925 0.1225 0.1225 0.9925 1265.8018 -162.6817)">
				<stop  offset="0" style="stop-color:#FFC444"/>
				<stop  offset="0.9964" style="stop-color:#F36F56"/>
			</linearGradient>
			<path style="fill:url(#SVGID_00000029726199485868128760000014963626828345933757_);" d="M1078.44,3096.874l3.589,40.859
				c-1.019,1.973-13.163,7.892-22.81,2.816l-9.219-40.163L1078.44,3096.874z"/>
			
				<linearGradient id="SVGID_00000057116506100753378280000008147062728692898698_" gradientUnits="userSpaceOnUse" x1="643.2314" y1="3369.5229" x2="738.1487" y2="3369.5229" gradientTransform="matrix(-0.9642 0.2651 0.2651 0.9642 1185.7133 -308.9189)">
				<stop  offset="0" style="stop-color:#444B8C"/>
				<stop  offset="0.9964" style="stop-color:#26264F"/>
			</linearGradient>
			<path style="fill:url(#SVGID_00000057116506100753378280000008147062728692898698_);" d="M1370.566,3111.562
				c-5.855,6.466-7.189,18.373-2.098,24.239c5.005,5.767,12.53,1.442,33.874,2.079c22.863,0.684,28.833,6.083,44.369,1.797
				c6.276-1.735,17.362-5.943,17.151-10.425c-0.147-3.152-5.792-4.78-24.641-11.095c-26.756-8.962-26.638-9.452-32.321-10.394
				C1392.63,3105.398,1378.3,3103.024,1370.566,3111.562z"/>
			
				<linearGradient id="SVGID_00000066477291653163337810000002973340601309680003_" gradientUnits="userSpaceOnUse" x1="462.3489" y1="3326.6697" x2="502.3756" y2="3243.8237" gradientTransform="matrix(-0.9802 0.1979 0.1979 0.9802 1196.9233 -227.1835)">
				<stop  offset="0" style="stop-color:#FFC444"/>
				<stop  offset="0.9964" style="stop-color:#F36F56"/>
			</linearGradient>
			<path style="fill:url(#SVGID_00000066477291653163337810000002973340601309680003_);" d="M1385.215,3074.272l11.467,38.144
				c-0.867,2.047-12.524,8.872-22.528,4.548l-17.03-37.022L1385.215,3074.272z"/>
			
				<linearGradient id="SVGID_00000133526858274656606190000005461378923265917109_" gradientUnits="userSpaceOnUse" x1="2434.7305" y1="2956.0007" x2="2181.5671" y2="2385.3101" gradientTransform="matrix(1 0 0 1 -1007.137 0)">
				<stop  offset="0" style="stop-color:#AA80F9"/>
				<stop  offset="0.9964" style="stop-color:#6165D7"/>
			</linearGradient>
			<path style="fill:url(#SVGID_00000133526858274656606190000005461378923265917109_);" d="M1283.329,2238.867
				c1.642,128.191,10.39,272.329,31.38,428.925c20.744,154.771,49.815,294.613,81.528,417.585
				c-14.631,3.936-29.261,7.872-43.891,11.809c-37.118-34.611-83.942-89.094-106.536-166.086
				c-14.022-47.786-9.349-72.342-18.244-131.117c-14.163-93.585-42.85-142.615-72.5-218.082
				c-26.644-67.814-58.138-167.338-75.024-300.369C1147.804,2267.311,1215.567,2253.088,1283.329,2238.867z"/>
			
				<linearGradient id="SVGID_00000104666506845174989230000011030213793195039377_" gradientUnits="userSpaceOnUse" x1="1827.9545" y1="3135.1699" x2="1574.7957" y2="2564.4897" gradientTransform="matrix(0.9925 -0.1225 0.1225 0.9925 -924.1319 108.1241)">
				<stop  offset="0" style="stop-color:#AA80F9"/>
				<stop  offset="0.9964" style="stop-color:#6165D7"/>
			</linearGradient>
			<path style="fill:url(#SVGID_00000104666506845174989230000011030213793195039377_);" d="M1122.174,2239.453
				c-8.955,163.038-16.319,329.111-21.9,498.126c-4.189,126.828-7.265,252.048-9.308,375.62
				c-14.945,1.845-29.889,3.692-44.835,5.536c-14.44-26.886-33.62-67.991-46.76-120.676
				c-15.958-63.987-12.263-101.985-19.261-168.302c-7.853-74.38-19.258-90.585-39.463-184.414
				c-41.008-190.423-61.514-285.636-15.768-344.863C939.728,2281.252,986.28,2233.02,1122.174,2239.453z"/>
			
				<linearGradient id="SVGID_00000067228516822555247040000000714370790235628951_" gradientUnits="userSpaceOnUse" x1="1951.0249" y1="2016.6469" x2="2323.3335" y2="2016.6469" gradientTransform="matrix(1 0 0 1 -1007.137 0)">
				<stop  offset="0" style="stop-color:#AA80F9"/>
				<stop  offset="0.9964" style="stop-color:#6165D7"/>
			</linearGradient>
			<path style="fill:url(#SVGID_00000067228516822555247040000000714370790235628951_);" d="M943.888,1701.409
				c34.999-9.842,86.292-21.352,149.11-24.903c89.596-5.064,134.394-7.596,166.139,13.74
				c73.319,49.279,16.556,163.014,46.569,444.954c12.756,119.831,18.507,112.079-10.239,154.729
				c-58.407,86.651-222.467,93.753-297.621,18.624c-39.72-39.708-44.843-41.948-45.798-87.255
				C948.278,2042.461,945.435,1873.591,943.888,1701.409z"/>
			<path style="fill:#FFFFFF;" d="M1330.262,1704.108c-46.58-23.943-89.836-28.322-114.279-28.954
				c-22.171,54.767-50.021,137.318-63.19,240.599c-11.885,93.219-6.333,154.896,0.031,282.958
				c4.021,80.903,8.117,198.13,6.884,342.541c24.667,7.912,44.838,9.77,58.368,10.072c47.952,1.075,63.967-16.25,112.948-11.454
				c21.365,2.093,26.683,6.207,33.871,1.417c20.038-13.36,5.036-62.904-5.022-116.703c-15.548-83.186,1.382-66.064-13.802-200.775
				c-12.588-111.681-29.953-174.282-13.805-180.699C1340.941,2039.664,1349.099,1713.792,1330.262,1704.108z"/>
			
				<linearGradient id="SVGID_00000139259247430973657530000016101127915098563491_" gradientUnits="userSpaceOnUse" x1="1942.6975" y1="1427.2909" x2="2354.2891" y2="2358.3894" gradientTransform="matrix(1 0 0 1 -1007.137 0)">
				<stop  offset="0" style="stop-color:#AA80F9"/>
				<stop  offset="0.9964" style="stop-color:#6165D7"/>
			</linearGradient>
			<path style="opacity:0.15;fill:url(#SVGID_00000139259247430973657530000016101127915098563491_);" d="M1283.329,2238.867
				c0.631-84.029,45.401-95.911,40.892-168.2c-4.539-72.805-50.952-76.802-49.346-139.454
				c1.952-76.195,71.361-100.252,68.655-169.491c-0.913-23.344-9.776-43.933-21.296-61.371
				c-43.462-20.464-83.226-24.602-106.25-25.196c-22.171,54.767-50.021,137.318-63.19,240.599
				c-11.885,93.217-6.333,154.896,0.031,282.958c4.021,80.903,8.118,198.129,6.884,342.541c24.667,7.912,44.839,9.77,58.368,10.072
				c47.952,1.075,63.969-16.25,112.948-11.454c21.365,2.093,26.683,6.207,33.871,1.417c17.506-11.673,8.264-50.972-1.055-96.593
				c-14.719-19.006-29.892-37.281-46.055-71.519C1305.573,2347.311,1282.875,2299.233,1283.329,2238.867z"/>
			<path style="fill:#FFFFFF;" d="M1108.904,1931.428c10.968,41.654,9.955,74.813,8.785,105.408
				c-6.447,168.555-9.726,253.323-12.549,277.322c-13.703,116.536-23.385,109.279-20.061,156.604
				c1.781,25.335,5.932,47.022-7.928,62.964c-16.529,19.014-40.312,8.727-98.83,16.271c-53.799,6.938-55.219,18.409-113.356,25.397
				c-23.62,2.839-88.131,10.594-94.871-7.756c-3.604-9.813,9.739-25.922,22.588-33.882c20.938-12.971,38.783-3.192,45.85-13.54
				c8.102-11.861-13.77-27.01-14.479-55.477c-0.706-28.373,20.417-37.596,33.53-72.44c12.219-32.463,7.293-60.092,5.409-79.666
				c-8.407-87.31,30.022-156.359,37.606-272.035c11.811-180.132-65.207-259.259-12.927-316.977
				c28.309-31.252,74.897-34.558,104.028-33.852c30.265,63.049,56.332,112.656,74.789,146.725
				C1086.417,1873.28,1099.49,1895.667,1108.904,1931.428z"/>
			<g>
				<path style="fill:#FFFFFF;" d="M1226.234,1884.998c-4.298-14.797-17.87-28.979-12.55-46.43
					c3.136-10.284,11.385-16.948,17.725-20.924c41.778-9.389,69.88-48.474,65.724-89.502c-1.669-16.481-8.407-31.655-18.669-43.967
					c-25.5-6.818-47.521-8.635-62.48-9.021c-22.171,54.767-50.021,137.318-63.19,240.599c-5.608,43.984-7.305,80.985-6.896,121.212
					c7.241-23.117,17.403-40.384,28.178-53.492C1192.322,1961.271,1236.699,1921.034,1226.234,1884.998z"/>
			</g>
			<g style="opacity:0.64;">
				
					<linearGradient id="SVGID_00000091725326703030223510000011560532257904214186_" gradientUnits="userSpaceOnUse" x1="1877.6384" y1="2132.1741" x2="2125.5173" y2="2132.1741" gradientTransform="matrix(1 0 0 1 -1007.137 0)">
					<stop  offset="0" style="stop-color:#AA80F9"/>
					<stop  offset="0.9964" style="stop-color:#6165D7"/>
				</linearGradient>
				<path style="opacity:0.3;fill:url(#SVGID_00000091725326703030223510000011560532257904214186_);" d="M1108.904,1931.428
					c-9.414-35.761-22.488-58.148-42.416-94.933c-18.46-34.07-44.524-83.677-74.789-146.725c-7.063-0.171-15.166-0.094-23.772,0.547
					c-46.073,63.634-48.993,99.207-38.292,120.321c10.429,20.572,32.239,24.571,35.087,46.784
					c4.456,34.729-46.083,46.602-58.479,93.567c-10.822,40.998,14.5,81.946,38.331,120.489
					c40.537,65.554,77.653,73.653,76.29,108.753c-1.419,36.518-41.968,37.168-58.481,81.871
					c-25.882,70.069,54.546,120.455,30.409,182.456c-18.704,48.051-75.196,38.814-109.941,100.586
					c-5.511,9.8-9.43,19.728-12.35,29.513c52.601-7.033,55.834-17.957,107.821-24.661c58.516-7.545,82.297,2.743,98.829-16.271
					c13.861-15.942,9.708-37.629,7.928-62.964c-3.325-47.325,6.359-40.069,20.061-156.604
					c2.823-23.999,6.102-108.767,12.549-277.322C1118.859,2006.24,1119.872,1973.082,1108.904,1931.428z"/>
			</g>
			<path style="fill:#FFFFFF;" d="M985.929,1834.176c23.762,21.121,40.955,28.251,43.924,48.396
				c3.272,22.192-15.221,29.615-12.076,51.223c3.931,27.028,34.562,27.087,50.347,61.631c10.332,22.614,1.321,31.59,7.529,60.86
				c3.783,17.84,13.148,42.7,38.586,70.301c1.043-26.817,2.184-56.643,3.452-89.751c1.171-30.595,2.183-63.754-8.785-105.408
				c-9.414-35.761-22.487-58.148-42.416-94.933c-18.457-34.069-44.524-83.676-74.789-146.725
				c-17.072-0.413-40.131,0.601-62.001,7.761c-7.554,13.78-8.806,24.732-9.02,30.611
				C918.975,1774.664,970.062,1820.073,985.929,1834.176z"/>
			<g>
				
					<linearGradient id="SVGID_00000065068881073308895820000008671360665310648993_" gradientUnits="userSpaceOnUse" x1="2312.5115" y1="1143.1948" x2="2322.4758" y2="877.779" gradientTransform="matrix(0.917 0.3988 -0.3988 0.917 -607.5323 -184.8945)">
					<stop  offset="0" style="stop-color:#FFC444"/>
					<stop  offset="0.9964" style="stop-color:#F36F56"/>
				</linearGradient>
				<path style="fill:url(#SVGID_00000065068881073308895820000008671360665310648993_);" d="M1099.688,1578.619
					c0.223,26.562-2.74,47.628-5.544,62.054c-3.211,16.529-5.526,20.799-8.479,24.265c-4.445,5.215-11.182,9.591-49.244,19.029
					c-20.713,5.135-23.377,4.995-23.835,7.05c-2.231,10.027,54.248,44.201,112.598,35.965c35.712-5.041,68.204-25.414,66.209-36.114
					c-2.008-10.767-37.679-4.99-48.311-24.469c-7.396-13.551,0.895-32.789,10.694-48.721
					C1144.286,1599.892,1109.18,1596.404,1099.688,1578.619z"/>
				<g>
					
						<linearGradient id="SVGID_00000176752849350896340100000005586924938139329447_" gradientUnits="userSpaceOnUse" x1="-29.0144" y1="1550.8318" x2="-96.5755" y2="1379.2389" gradientTransform="matrix(-1 0.0037 0.0037 1 1031.8878 162.9159)">
						<stop  offset="0" style="stop-color:#311944"/>
						<stop  offset="1" style="stop-color:#6B3976"/>
					</linearGradient>
					<path style="fill:url(#SVGID_00000176752849350896340100000005586924938139329447_);" d="M1165.97,1589.121
						c8.428-11.196,8.947-30.741-0.763-43.096c-8.357-10.632-21.508-12.147-29.381-13.058c-22.814-2.634-51.601,6.89-61.614,27.888
						c-5.933,12.444,6.902,38.299,8.911,42.948c2.276,5.256,6.402,7.059,10.219,11.033c5.29,5.511,13.571,14.275,27.089,28.931
						c1.05-4.324,2.647-9.679,5.184-15.481c0.976-2.234,4.899-10.958,10.834-18.191
						C1148.339,1595.594,1157.98,1599.731,1165.97,1589.121z"/>
					
						<linearGradient id="SVGID_00000047768950709751586030000002581724863059066271_" gradientUnits="userSpaceOnUse" x1="1508.3363" y1="1471.0171" x2="1505.2295" y2="1721.3361" gradientTransform="matrix(0.9979 -0.0649 0.0649 0.9979 -475.2094 219.5886)">
						<stop  offset="0" style="stop-color:#FFC444"/>
						<stop  offset="0.9964" style="stop-color:#F36F56"/>
					</linearGradient>
					<path style="fill:url(#SVGID_00000047768950709751586030000002581724863059066271_);" d="M1101.148,1631.442
						c0,0,14.998,24.606,44.86,22.663c26.736-1.741,30.652-61.698,13.575-74.422c-5.698-4.244-17.108-6.007-26.385-3.408
						c-5.479,1.536-7.335,3.813-16.338,6.147c-8.305,2.155-10.649,1.235-13.156,3.344c-3.135,2.64-5.432,9.108-0.196,26.636
						c-5.101-5.164-11.224-7.147-15.563-5.099c-0.691,0.328-2.527,1.576-3.561,3.469
						C1080.647,1617.62,1086.902,1626.367,1101.148,1631.442z"/>
					
						<linearGradient id="SVGID_00000178922133711494092550000004573199969325908135_" gradientUnits="userSpaceOnUse" x1="-49.6537" y1="1559.0485" x2="-117.2832" y2="1387.2819" gradientTransform="matrix(-1 0.0037 0.0037 1 1031.8878 162.9159)">
						<stop  offset="0" style="stop-color:#311944"/>
						<stop  offset="1" style="stop-color:#6B3976"/>
					</linearGradient>
					<path style="fill:url(#SVGID_00000178922133711494092550000004573199969325908135_);" d="M1102.495,1582.18
						c1.289,0.962-2.652,5.772-2.945,12.581c-0.572,13.216,12.806,29.081,26.452,30.426c8.069,0.795,10.286-4.069,23.624-5.478
						c8.257-0.872,15.132,0.178,19.456,1.123c4.192,14.495,0.248,28.947-9.441,35.651c-10.431,7.219-23.755,2.84-29.325,1.008
						c-3.728-1.225-15.669-5.125-21.91-16.077c-6.504-11.412-0.122-18.29-7.582-26.009c-3.763-3.894-8.705-5.579-13.517-13.117
						c-1.307-2.049-2.179-3.859-2.712-5.078C1091.494,1589.902,1100.628,1580.787,1102.495,1582.18z"/>
					
						<linearGradient id="SVGID_00000016767928363326799980000016670711618356019893_" gradientUnits="userSpaceOnUse" x1="-115.8434" y1="1455.5519" x2="-112.3262" y2="1486.9077" gradientTransform="matrix(-1 0.0037 0.0037 1 1031.8878 162.9159)">
						<stop  offset="0" style="stop-color:#FFC444"/>
						<stop  offset="1" style="stop-color:#F36F56"/>
					</linearGradient>
					<path style="fill:url(#SVGID_00000016767928363326799980000016670711618356019893_);" d="M1159.377,1626.205
						c0,0-5.774,3.016-15.753,2.456c-0.485-0.028-1.021,0.114-1.082,0.366c-0.23,0.946,6.172,5.191,12.071,3.533
						c4.188-1.179,7.446-5.143,6.883-6.152C1161.256,1625.983,1160.309,1626.039,1159.377,1626.205z"/>
				</g>
			</g>
			<path style="fill:#FFFFFF;" d="M1005.258,1966.173c15.244,32.373-54.807,107.772-132.666,143.574
				c-15.863,7.297-129.782,59.676-180.555,9.309c-41.953-41.623-14.877-127.685-5.211-158.41
				c47.467-150.872,181.782-235.435,242.872-263.116c45.592,113.999,30.194,172.613,19.627,188.474
				c-11.041,16.568-41.852,51.373-74.575,82.035c-23.019,21.564-37.353,32.06-35.425,35.423c2.398,4.187,29.38-3.72,134.179-54.731
				C985.652,1950.699,1000.048,1955.119,1005.258,1966.173z"/>
			
				<linearGradient id="SVGID_00000168117063070356595660000006686209327549567632_" gradientUnits="userSpaceOnUse" x1="-3408.4177" y1="2419.0913" x2="-3381.7917" y2="2185.3723" gradientTransform="matrix(-1 0 0 1 -2213.1372 0)">
				<stop  offset="0" style="stop-color:#FF9085"/>
				<stop  offset="1" style="stop-color:#FB6FBB"/>
			</linearGradient>
			<path style="fill:url(#SVGID_00000168117063070356595660000006686209327549567632_);" d="M1264.44,1776.963l-185.501,17.373
				c-3.889,0.364-7.157,3.076-8.233,6.832l-69.225,241.722c-1.832,6.397,3.323,12.643,9.951,12.058l187.026-16.502
				c3.934-0.347,7.24-3.095,8.302-6.898l67.701-242.593C1276.247,1782.551,1271.06,1776.343,1264.44,1776.963z"/>
			
				<linearGradient id="SVGID_00000042009305723640143860000013505196038925192066_" gradientUnits="userSpaceOnUse" x1="-3246.1255" y1="1907.7849" x2="-3151.968" y2="2483.5959" gradientTransform="matrix(-1 0 0 1 -2213.1372 0)">
				<stop  offset="0" style="stop-color:#FFC444"/>
				<stop  offset="0.9964" style="stop-color:#F36F56"/>
			</linearGradient>
			<path style="fill:url(#SVGID_00000042009305723640143860000013505196038925192066_);" d="M978.789,1958.603
				c0,0,63.883-65.368,89.882-75.023c25.997-9.657,2.979,59.289-12.253,69.013c-15.231,9.724-21.174,13.439-33.061,14.922
				c-11.884,1.487-11.884,1.487-11.884,1.487l-15.6,8.317C995.872,1977.32,975.818,1974.946,978.789,1958.603z"/>
			
				<linearGradient id="SVGID_00000137833227762686412210000012411899525325094072_" gradientUnits="userSpaceOnUse" x1="-3458.9067" y1="2413.3376" x2="-3432.2805" y2="2179.6187" gradientTransform="matrix(-1 0 0 1 -2213.1372 0)">
				<stop  offset="0" style="stop-color:#FF9085"/>
				<stop  offset="1" style="stop-color:#FB6FBB"/>
			</linearGradient>
			<path style="opacity:0.3;fill:url(#SVGID_00000137833227762686412210000012411899525325094072_);" d="M1140.972,1986.041
				c6.996-38.211-14.563-67.841,6.097-103.657c21.252-36.844,58.565-30.625,85.365-60.975c8.531-9.661,16.187-23.349,19.949-43.316
				l12.058-1.129c6.62-0.62,11.807,5.587,10.019,11.991l-67.701,242.594c-1.061,3.803-4.368,6.551-8.302,6.898l-94.974,8.38
				C1127.648,2025.14,1137.634,2004.267,1140.972,1986.041z"/>
			
				<linearGradient id="SVGID_00000026130975927905246630000006377370062548210604_" gradientUnits="userSpaceOnUse" x1="623.1805" y1="1760.0397" x2="620.8053" y2="1739.1906" gradientTransform="matrix(0.9955 -0.095 0.095 0.9955 393.015 138.9987)">
				<stop  offset="0" style="stop-color:#311944"/>
				<stop  offset="1" style="stop-color:#6B3976"/>
			</linearGradient>
			<path style="fill:url(#SVGID_00000026130975927905246630000006377370062548210604_);" d="M1213.562,1784.415
				c0.351,3.681-2.348,6.951-6.03,7.302l-71.161,6.792c-3.681,0.351-6.951-2.348-7.302-6.03l-0.13-1.363
				c-0.351-3.682,2.348-6.951,6.03-7.302l71.161-6.792c3.682-0.351,6.951,2.348,7.302,6.03L1213.562,1784.415z"/>
		</g>
		<g>
			<g>
				
					<linearGradient id="SVGID_00000031203430123586341670000001916553857905250984_" gradientUnits="userSpaceOnUse" x1="639.8224" y1="988.208" x2="1348.0123" y2="988.208">
					<stop  offset="0" style="stop-color:#444B8C"/>
					<stop  offset="0.9964" style="stop-color:#26264F"/>
				</linearGradient>
				<path style="fill:url(#SVGID_00000031203430123586341670000001916553857905250984_);" d="M1348.012,965.633
					c0,195.802-157.776,365.078-353.003,378.128c-195.893,13.095-355.187-135.968-355.187-332.981S799.117,644.394,995.01,632.513
					C1190.236,620.672,1348.012,769.831,1348.012,965.633z"/>
				
					<linearGradient id="SVGID_00000124883536664524770080000016591550677810659519_" gradientUnits="userSpaceOnUse" x1="805.1789" y1="975.6651" x2="1184.2137" y2="975.6651">
					<stop  offset="0" style="stop-color:#444B8C"/>
					<stop  offset="0.9964" style="stop-color:#26264F"/>
				</linearGradient>
				<path style="fill:url(#SVGID_00000124883536664524770080000016591550677810659519_);" d="M982.538,1180.576
					c-15.355,1.005-29.64-6.138-37.588-18.901L811.466,947.33c-12.51-20.086-5.77-47.599,15.048-61.447
					c20.8-13.839,47.794-8.784,60.288,11.294l92.572,148.789l122.148-248.771c10.962-22.326,37.299-32.568,58.81-22.884
					c21.507,9.68,30.065,35.61,19.118,57.922l-157.849,321.743c-7.229,14.731-21.598,24.87-37.522,26.47
					C983.565,1180.499,983.051,1180.542,982.538,1180.576z"/>
			</g>
			<g>
				
					<linearGradient id="SVGID_00000088833786640147147120000007343598586205223324_" gradientUnits="userSpaceOnUse" x1="674.629" y1="988.208" x2="1382.8188" y2="988.208">
					<stop  offset="0" style="stop-color:#AA80F9"/>
					<stop  offset="0.9964" style="stop-color:#6165D7"/>
				</linearGradient>
				<path style="fill:url(#SVGID_00000088833786640147147120000007343598586205223324_);" d="M1382.819,965.633
					c0,195.802-157.776,365.078-353.003,378.128c-195.893,13.095-355.187-135.968-355.187-332.981s159.294-366.386,355.187-378.267
					C1225.043,620.672,1382.819,769.831,1382.819,965.633z"/>
				<path style="fill:#FFFFFF;" d="M1017.344,1180.576c-15.354,1.005-29.64-6.138-37.588-18.901L846.273,947.33
					c-12.51-20.086-5.77-47.599,15.048-61.447c20.8-13.839,47.794-8.784,60.288,11.294l92.573,148.789l122.148-248.771
					c10.962-22.326,37.299-32.568,58.81-22.884c21.507,9.68,30.065,35.61,19.118,57.922l-157.849,321.743
					c-7.229,14.731-21.598,24.87-37.522,26.47C1018.372,1180.499,1017.858,1180.542,1017.344,1180.576z"/>
			</g>
		</g>
	</g>
</g>
</svg>
